<svg id="svg" version="1.1" xmlns="http://www.w3.org/2000/svg" xmlns:xlink="http://www.w3.org/1999/xlink" width="400" height="347.4315068493151" viewBox="0, 0, 400,347.4315068493151"><g id="svgg"><path id="path0" d="M209.792 6.212 C 209.692 6.332,209.373 6.929,209.082 7.539 L 208.554 8.647 209.140 9.161 C 211.051 10.837,214.821 25.339,217.563 41.565 C 218.710 48.354,218.934 47.775,214.998 48.191 C 211.265 48.586,211.361 48.693,210.618 43.340 C 209.150 32.773,207.139 23.169,206.195 22.217 C 205.329 21.344,194.409 21.323,188.870 22.184 C 186.393 22.568,184.521 22.960,184.341 23.132 C 184.242 23.226,185.373 24.497,187.261 26.412 C 193.492 32.732,197.948 38.029,201.487 43.322 C 203.308 46.045,203.366 45.769,200.574 47.672 C 197.659 49.659,197.493 49.616,195.119 46.256 C 185.762 33.012,172.203 20.413,159.001 12.696 C 155.912 10.890,156.207 10.843,154.733 13.380 L 154.271 14.174 154.680 14.664 C 156.405 16.731,159.023 27.166,162.251 44.838 C 163.764 53.123,163.816 52.742,161.087 53.271 C 157.541 53.958,156.706 53.630,156.354 51.411 C 154.993 42.826,154.584 40.513,153.667 36.216 C 152.762 31.976,152.978 32.072,149.095 34.175 C 122.147 48.769,99.517 79.449,95.047 107.449 C 89.416 142.719,97.840 173.492,120.099 198.973 C 128.287 208.345,142.435 219.010,150.384 221.801 C 150.591 221.874,151.022 221.604,151.802 220.912 C 156.690 216.573,165.603 215.489,177.911 217.738 C 182.306 218.541,185.221 219.378,188.784 220.860 C 189.255 221.056,191.027 221.650,192.723 222.181 C 199.856 224.413,208.691 228.145,214.420 231.346 L 215.399 231.893 217.160 230.716 C 223.569 226.433,231.846 224.005,238.682 224.404 C 243.660 224.695,243.176 224.776,246.579 223.081 C 302.687 195.134,322.368 125.036,289.077 71.715 C 281.188 59.080,268.720 46.207,256.952 38.547 C 255.347 37.502,255.212 37.536,256.064 38.773 C 257.012 40.150,256.960 40.248,254.373 41.995 C 251.040 44.245,251.074 44.254,248.462 40.497 C 239.413 27.480,227.259 15.943,214.434 8.198 C 211.014 6.133,210.161 5.767,209.792 6.212 M346.134 39.747 C 339.692 45.908,331.474 57.190,327.065 65.925 C 323.104 73.772,323.104 73.779,326.718 78.435 C 335.203 89.364,345.522 99.030,356.433 106.269 C 361.867 109.874,361.646 109.886,366.560 105.736 C 379.253 95.019,390.019 85.148,391.558 82.818 C 393.159 80.394,393.100 80.135,387.608 65.602 C 384.210 56.610,384.795 57.338,378.682 54.492 C 368.874 49.925,356.265 43.464,351.120 40.369 C 347.741 38.336,347.625 38.321,346.134 39.747 M234.932 41.895 C 242.884 45.674,250.694 59.076,257.196 80.102 C 258.826 85.373,259.032 84.617,255.137 87.671 C 250.567 91.255,244.604 97.926,245.326 98.648 C 245.433 98.755,247.458 98.330,251.042 97.450 C 262.930 94.529,262.318 94.494,263.337 98.154 C 263.629 99.207,263.944 100.143,264.037 100.235 C 264.146 100.344,266.039 99.473,269.474 97.734 C 276.846 94.000,278.225 93.563,282.534 93.600 C 289.743 93.661,295.390 97.917,297.552 104.917 C 298.208 107.042,298.259 112.311,297.644 114.433 C 294.298 125.981,278.456 134.822,250.649 140.658 C 246.298 141.571,246.506 141.556,245.968 141.018 C 244.936 139.986,245.580 139.135,247.919 138.441 C 269.661 131.983,287.838 122.513,291.301 115.839 C 293.932 110.768,292.476 104.122,288.142 101.418 C 282.493 97.893,276.929 98.853,264.629 105.472 C 252.880 111.795,242.774 117.643,236.609 121.689 C 234.235 123.246,233.799 123.369,233.105 122.675 C 232.721 122.292,232.676 122.130,232.754 121.436 C 232.865 120.453,232.861 120.456,237.451 117.280 C 239.355 115.963,240.945 114.830,240.984 114.763 C 241.024 114.695,240.298 112.367,239.372 109.589 C 227.954 75.349,223.609 48.257,228.622 42.563 C 230.160 40.815,232.204 40.599,234.932 41.895 M31.079 44.814 C 28.158 45.548,18.293 56.962,8.574 70.850 L 6.146 74.321 6.740 74.881 C 7.144 75.262,7.370 75.658,7.446 76.119 C 8.229 80.857,13.758 92.775,16.399 95.416 C 17.633 96.651,38.063 98.140,39.130 97.073 C 39.359 96.845,39.347 96.666,39.023 95.454 C 37.682 90.442,38.950 80.413,41.683 74.416 C 45.128 66.856,53.117 59.315,56.669 60.271 C 58.112 60.660,58.008 61.586,56.379 62.855 C 50.139 67.719,46.407 73.491,44.821 80.736 C 43.941 84.753,44.312 91.932,45.587 95.548 C 49.710 107.242,62.760 110.100,73.165 101.587 C 74.528 100.472,74.782 100.101,74.455 99.701 C 73.675 98.744,66.720 94.635,61.886 92.275 C 56.807 89.795,56.065 88.844,56.096 84.846 C 56.152 77.455,60.649 70.146,65.735 69.182 C 69.602 68.448,77.750 71.134,84.501 75.367 C 86.471 76.602,86.436 76.619,86.635 74.322 C 87.234 67.427,84.047 61.782,77.846 58.753 C 74.702 57.217,71.696 56.849,62.276 56.849 C 54.949 56.849,54.925 56.844,50.803 54.227 C 44.553 50.259,32.431 44.475,31.079 44.814 M182.328 47.943 C 188.643 50.893,196.494 63.050,204.278 81.935 C 214.937 107.792,213.272 129.004,200.583 129.021 L 198.341 129.024 196.645 128.184 C 192.857 126.309,189.108 121.433,186.151 114.535 C 184.375 110.393,184.279 109.342,185.573 108.205 C 187.434 106.571,192.897 104.800,198.677 103.955 C 201.764 103.505,201.961 103.363,200.642 102.545 C 197.469 100.578,190.436 99.144,183.955 99.144 C 180.058 99.144,180.096 99.172,178.740 95.316 C 172.640 77.978,170.066 60.885,172.457 53.596 C 174.170 48.374,178.249 46.037,182.328 47.943 M66.476 77.145 C 64.987 77.902,64.211 79.233,63.865 81.628 C 63.482 84.272,64.256 85.719,66.642 86.825 C 71.479 89.067,73.388 90.213,85.154 97.943 C 87.325 99.369,88.948 100.330,89.034 100.240 C 89.115 100.155,89.535 98.776,89.969 97.175 C 90.402 95.574,91.074 93.285,91.461 92.089 C 91.849 90.893,92.122 89.797,92.066 89.653 C 91.816 89.001,84.601 84.003,80.308 81.508 C 72.708 77.090,68.930 75.898,66.476 77.145 M315.154 79.176 C 311.591 80.864,311.383 84.731,314.582 89.828 C 320.998 100.050,327.855 103.679,332.320 99.217 C 333.784 97.754,333.799 97.807,331.122 95.052 C 328.006 91.847,320.864 83.248,318.676 80.068 C 317.778 78.763,316.637 78.474,315.154 79.176 M337.790 102.703 C 337.568 102.948,337.533 103.244,337.614 104.207 L 337.715 105.406 337.108 105.939 C 335.990 106.920,333.455 107.640,330.394 107.847 L 328.682 107.962 328.633 108.476 C 328.412 110.831,333.813 115.605,339.298 117.903 C 354.325 124.199,369.201 121.405,374.304 111.328 C 374.867 110.217,374.645 110.278,373.134 111.649 C 368.350 115.990,364.995 117.439,363.381 115.863 C 362.664 115.164,362.184 115.080,361.735 115.576 C 360.601 116.829,357.770 116.567,355.019 114.955 C 353.160 113.865,342.771 105.905,340.753 104.024 C 338.929 102.322,338.363 102.070,337.790 102.703 M133.624 110.488 C 135.076 112.434,135.060 112.779,133.465 113.799 C 132.276 114.559,132.286 114.685,133.677 116.541 C 148.531 136.355,181.106 150.792,219.007 154.358 C 244.088 156.718,267.734 150.392,288.442 135.782 C 293.022 132.551,296.065 133.575,296.060 138.347 C 296.031 166.781,272.483 201.436,243.921 215.076 C 232.515 220.524,215.808 222.573,202.153 220.201 C 168.627 214.375,149.103 199.878,134.763 170.161 C 127.762 155.654,122.961 135.412,122.947 120.344 C 122.945 118.276,122.883 118.172,121.931 118.658 C 120.566 119.354,120.034 119.110,119.379 117.486 C 118.996 116.536,118.925 115.995,119.118 115.491 C 119.182 115.324,121.777 113.946,125.240 112.239 C 132.582 108.620,132.277 108.684,133.624 110.488 M318.092 117.646 C 315.187 117.910,312.775 118.161,312.733 118.203 C 312.690 118.246,312.745 119.465,312.854 120.913 C 312.969 122.445,313.005 124.593,312.939 126.055 C 312.877 127.436,312.888 128.601,312.963 128.645 C 313.038 128.688,319.649 128.352,327.654 127.897 C 335.659 127.441,342.398 127.066,342.628 127.062 C 343.396 127.049,342.757 126.768,340.497 126.123 C 334.612 124.446,329.132 121.637,326.113 118.752 C 324.978 117.668,324.083 117.097,323.593 117.145 C 323.472 117.156,320.997 117.382,318.092 117.646 M165.121 219.698 C 160.753 220.115,154.390 222.732,155.070 223.832 C 155.624 224.728,171.266 230.308,173.224 230.308 C 173.910 230.308,174.043 230.122,174.322 228.769 C 174.875 226.084,176.638 223.850,179.210 222.576 C 180.964 221.706,180.990 221.738,177.910 220.982 C 173.391 219.872,168.475 219.379,165.121 219.698 M296.447 222.381 L 297.260 222.450 297.260 225.511 C 297.260 228.099,297.220 228.583,297.000 228.652 C 296.818 228.708,296.831 228.724,297.043 228.705 C 297.321 228.679,297.346 228.415,297.346 225.511 L 297.346 222.346 296.490 222.328 L 295.634 222.311 296.447 222.381 M293.236 222.855 C 292.317 223.158,292.679 223.170,293.750 222.872 C 294.221 222.741,294.452 222.632,294.264 222.631 C 294.075 222.630,293.613 222.731,293.236 222.855 M291.610 223.337 C 291.269 223.508,291.176 223.692,291.157 224.233 L 291.132 224.914 291.242 224.244 C 291.336 223.673,291.442 223.541,291.952 223.358 C 292.282 223.239,292.436 223.138,292.295 223.132 C 292.153 223.126,291.845 223.218,291.610 223.337 M287.671 224.932 C 287.384 225.109,287.356 225.156,287.586 225.078 C 288.439 224.787,288.499 224.794,288.576 225.198 C 288.645 225.562,288.654 225.556,288.675 225.128 C 288.702 224.581,288.355 224.513,287.671 224.932 M285.468 226.035 C 279.881 229.080,271.141 237.430,268.697 242.057 C 268.507 242.417,272.010 247.945,272.428 247.945 C 272.510 247.945,273.169 247.088,273.894 246.041 C 277.971 240.143,282.890 235.251,287.756 232.253 C 288.508 231.789,289.132 231.297,289.142 231.159 C 289.152 231.019,289.128 231.000,289.089 231.116 C 289.050 231.230,288.443 231.673,287.740 232.100 C 282.716 235.150,278.265 239.557,273.875 245.828 C 273.158 246.851,272.505 247.688,272.423 247.688 C 272.341 247.688,271.465 246.503,270.476 245.054 C 268.420 242.041,268.456 242.497,270.094 240.325 C 274.899 233.950,280.878 228.511,285.830 226.007 C 286.372 225.733,286.815 225.471,286.815 225.426 C 286.815 225.300,286.820 225.298,285.468 226.035 M291.327 226.712 C 291.327 227.513,291.356 227.840,291.393 227.440 C 291.429 227.040,291.429 226.385,291.393 225.985 C 291.356 225.584,291.327 225.912,291.327 226.712 M140.710 226.241 C 140.312 226.546,138.028 229.443,137.725 230.027 C 137.326 230.798,137.546 231.156,139.334 232.652 C 142.980 235.703,147.407 240.495,149.811 243.995 C 150.993 245.715,150.986 246.097,149.743 247.728 C 148.578 249.257,148.579 249.329,149.770 250.721 C 150.908 252.049,151.027 252.043,151.744 250.621 C 153.018 248.093,155.770 243.851,159.588 238.527 C 160.837 236.785,161.869 235.259,161.880 235.135 C 161.893 234.996,160.805 234.506,158.990 233.835 C 157.389 233.243,155.208 232.399,154.144 231.961 C 151.709 230.958,151.970 230.909,150.611 232.624 C 149.574 233.932,148.803 234.589,148.303 234.589 C 148.015 234.589,145.650 232.533,145.403 232.068 C 145.079 231.461,145.270 230.730,145.977 229.868 C 146.836 228.820,146.830 228.813,143.962 227.354 C 141.160 225.928,141.132 225.919,140.710 226.241 M288.752 226.969 C 288.753 227.534,288.785 227.745,288.823 227.437 C 288.861 227.129,288.860 226.667,288.821 226.410 C 288.782 226.152,288.751 226.404,288.752 226.969 M53.249 226.809 C 53.157 227.051,53.090 227.378,53.100 227.537 C 53.110 227.696,53.194 227.536,53.288 227.183 C 53.504 226.370,53.484 226.367,55.174 227.453 C 55.954 227.955,57.160 228.695,57.853 229.099 L 59.114 229.832 59.021 230.712 C 58.958 231.297,58.975 231.449,59.070 231.164 C 59.430 230.083,59.304 229.741,58.347 229.210 C 57.853 228.936,56.614 228.185,55.593 227.541 C 53.493 226.215,53.477 226.210,53.249 226.809 M185.739 228.269 C 181.691 228.861,180.129 232.285,182.458 235.459 C 183.369 236.699,184.766 237.690,187.980 239.376 C 193.213 242.121,197.041 244.607,201.444 248.120 C 204.144 250.274,204.304 250.326,204.721 249.187 C 206.082 245.469,207.711 242.027,209.181 239.763 C 210.405 237.879,210.427 237.952,208.262 236.614 C 199.984 231.493,189.756 227.436,186.815 228.104 C 186.768 228.115,186.284 228.189,185.739 228.269 M288.923 229.366 C 288.924 229.932,288.956 230.142,288.994 229.834 C 289.032 229.526,289.031 229.064,288.992 228.807 C 288.953 228.550,288.922 228.801,288.923 229.366 M52.664 229.205 C 52.599 229.548,52.581 229.864,52.623 229.906 C 52.664 229.947,52.751 229.701,52.816 229.357 C 52.880 229.013,52.899 228.698,52.857 228.656 C 52.815 228.614,52.728 228.861,52.664 229.205 M291.504 229.365 C 291.519 229.886,291.596 230.055,291.827 230.075 C 292.021 230.092,292.039 230.074,291.879 230.023 C 291.739 229.979,291.597 229.666,291.556 229.313 L 291.483 228.682 291.504 229.365 M294.606 229.110 C 294.170 229.297,294.620 229.297,295.205 229.110 C 295.550 228.999,295.566 228.972,295.291 228.967 C 295.103 228.965,294.795 229.029,294.606 229.110 M293.012 229.569 C 292.605 229.713,292.303 229.860,292.340 229.897 C 292.377 229.934,292.825 229.816,293.336 229.635 C 293.846 229.454,294.148 229.306,294.007 229.307 C 293.866 229.307,293.418 229.425,293.012 229.569 M82.277 230.058 C 81.901 230.384,80.822 231.043,79.880 231.522 C 78.938 232.002,78.360 232.341,78.596 232.275 C 79.304 232.080,81.544 230.831,82.306 230.207 C 82.699 229.886,83.126 229.623,83.255 229.623 C 83.451 229.623,87.866 234.577,88.244 235.221 C 88.407 235.498,87.716 236.120,85.873 237.358 C 84.099 238.550,83.867 238.743,84.886 238.182 C 85.880 237.635,88.527 235.632,88.527 235.427 C 88.527 235.103,83.528 229.452,83.246 229.458 C 83.090 229.462,82.654 229.732,82.277 230.058 M52.321 230.746 C 52.257 231.089,52.238 231.405,52.280 231.447 C 52.322 231.489,52.409 231.242,52.473 230.898 C 52.538 230.554,52.556 230.239,52.514 230.197 C 52.473 230.155,52.386 230.402,52.321 230.746 M62.272 231.450 C 62.209 231.513,62.159 231.647,62.160 231.749 C 62.162 231.851,62.228 231.832,62.308 231.706 C 62.426 231.520,62.717 231.561,63.855 231.920 C 64.626 232.164,65.350 232.357,65.463 232.351 C 65.647 232.339,62.727 231.347,62.486 231.339 C 62.431 231.337,62.334 231.387,62.272 231.450 M51.979 232.287 C 51.914 232.631,51.896 232.946,51.938 232.988 C 51.979 233.030,52.066 232.783,52.131 232.439 C 52.195 232.095,52.214 231.780,52.172 231.738 C 52.130 231.696,52.043 231.943,51.979 232.287 M58.657 232.287 C 58.592 232.631,58.574 232.946,58.616 232.988 C 58.658 233.030,58.745 232.783,58.809 232.439 C 58.873 232.095,58.892 231.780,58.850 231.738 C 58.808 231.696,58.721 231.943,58.657 232.287 M66.524 232.624 C 66.995 232.745,67.573 232.843,67.808 232.843 C 68.044 232.842,67.774 232.737,67.209 232.610 C 65.914 232.318,65.376 232.329,66.524 232.624 M76.370 232.791 C 75.946 232.914,75.753 233.016,75.942 233.018 C 76.130 233.020,76.592 232.920,76.969 232.796 C 77.856 232.504,77.375 232.500,76.370 232.791 M69.649 233.169 C 69.861 233.210,70.208 233.210,70.420 233.169 C 70.631 233.128,70.458 233.095,70.034 233.095 C 69.610 233.095,69.437 233.128,69.649 233.169 M74.617 233.169 C 74.830 233.210,75.138 233.208,75.302 233.166 C 75.465 233.123,75.291 233.089,74.914 233.091 C 74.538 233.093,74.404 233.128,74.617 233.169 M58.314 233.828 C 58.250 234.172,58.231 234.487,58.273 234.529 C 58.315 234.571,58.402 234.324,58.467 233.980 C 58.531 233.637,58.549 233.321,58.508 233.279 C 58.466 233.237,58.379 233.484,58.314 233.828 M71.795 233.345 C 72.245 233.381,72.938 233.380,73.336 233.344 C 73.733 233.308,73.365 233.279,72.517 233.280 C 71.670 233.280,71.344 233.310,71.795 233.345 M61.568 234.170 C 61.503 234.514,61.485 234.830,61.527 234.871 C 61.568 234.913,61.655 234.666,61.720 234.323 C 61.784 233.979,61.803 233.664,61.761 233.622 C 61.719 233.580,61.632 233.827,61.568 234.170 M51.561 234.109 C 51.538 234.448,52.959 235.503,55.318 236.898 C 57.024 237.907,57.604 238.024,57.643 237.369 C 57.662 237.046,57.652 237.039,57.588 237.326 C 57.545 237.516,57.377 237.671,57.214 237.671 C 56.564 237.671,51.789 234.603,51.656 234.100 C 51.589 233.847,51.579 233.848,51.561 234.109 M57.972 235.369 C 57.907 235.713,57.889 236.028,57.931 236.070 C 57.973 236.112,58.060 235.865,58.124 235.521 C 58.189 235.178,58.207 234.862,58.165 234.820 C 58.123 234.779,58.036 235.025,57.972 235.369 M61.225 235.712 C 61.161 236.055,61.142 236.371,61.184 236.412 C 61.226 236.454,61.313 236.207,61.377 235.864 C 61.442 235.520,61.460 235.205,61.419 235.163 C 61.377 235.121,61.290 235.368,61.225 235.712 M60.883 237.253 C 60.818 237.596,60.800 237.912,60.842 237.954 C 60.884 237.995,60.971 237.749,61.035 237.405 C 61.099 237.061,61.118 236.746,61.076 236.704 C 61.034 236.662,60.947 236.909,60.883 237.253 M60.678 238.685 C 60.693 239.046,60.801 239.298,60.959 239.341 C 61.132 239.387,61.151 239.364,61.017 239.268 C 60.908 239.190,60.782 238.895,60.736 238.612 C 60.661 238.142,60.656 238.149,60.678 238.685 M83.390 238.870 C 83.061 239.050,82.853 239.201,82.928 239.205 C 83.109 239.215,84.075 238.712,84.075 238.609 C 84.075 238.497,84.065 238.500,83.390 238.870 M82.021 239.469 C 81.785 239.604,81.670 239.714,81.764 239.714 C 81.858 239.714,82.128 239.604,82.363 239.469 C 82.598 239.335,82.714 239.224,82.620 239.224 C 82.526 239.224,82.256 239.335,82.021 239.469 M62.707 239.905 C 63.245 240.079,63.977 240.265,64.334 240.317 C 64.691 240.370,64.328 240.223,63.527 239.992 C 61.833 239.502,61.280 239.443,62.707 239.905 M80.394 240.083 C 79.923 240.265,79.760 240.370,80.032 240.317 C 80.571 240.213,81.699 239.754,81.421 239.753 C 81.327 239.753,80.865 239.901,80.394 240.083 M68.022 241.043 C 68.187 241.086,68.457 241.086,68.622 241.043 C 68.786 241.000,68.652 240.964,68.322 240.964 C 67.992 240.964,67.857 241.000,68.022 241.043 M69.394 241.219 C 69.655 241.258,70.040 241.257,70.251 241.216 C 70.461 241.176,70.248 241.144,69.777 241.145 C 69.307 241.146,69.134 241.179,69.394 241.219 M75.045 241.219 C 75.305 241.258,75.691 241.257,75.901 241.216 C 76.112 241.176,75.899 241.144,75.428 241.145 C 74.957 241.146,74.785 241.179,75.045 241.219 M71.704 241.393 C 72.198 241.428,73.007 241.428,73.502 241.393 C 73.996 241.359,73.592 241.330,72.603 241.330 C 71.614 241.330,71.209 241.359,71.704 241.393 " stroke="none" fill="#f9c30b" fill-rule="evenodd"></path><path id="path1" d="M345.015 40.711 C 342.142 43.677,337.960 48.654,335.700 51.798 C 334.732 53.143,335.613 52.099,337.525 49.634 C 340.125 46.281,342.814 43.156,345.205 40.710 C 346.289 39.602,347.127 38.696,347.070 38.697 C 347.012 38.698,346.088 39.604,345.015 40.711 M349.144 39.096 C 349.144 39.148,350.011 39.708,351.070 40.341 C 353.354 41.705,353.253 41.649,353.253 41.555 C 353.253 41.514,352.502 41.034,351.584 40.489 C 350.666 39.943,349.741 39.386,349.529 39.249 C 349.317 39.113,349.144 39.044,349.144 39.096 M353.510 41.736 C 353.604 41.832,354.298 42.241,355.051 42.644 C 355.805 43.046,356.344 43.298,356.250 43.203 C 356.156 43.107,355.462 42.699,354.709 42.295 C 353.955 41.890,353.416 41.639,353.510 41.736 M356.507 43.403 C 356.507 43.450,356.969 43.722,357.534 44.007 C 358.099 44.292,358.562 44.487,358.562 44.440 C 358.562 44.393,358.099 44.121,357.534 43.836 C 356.969 43.550,356.507 43.356,356.507 43.403 M31.864 44.753 C 31.903 44.787,32.166 44.867,32.449 44.930 C 32.824 45.014,32.893 44.998,32.705 44.871 C 32.474 44.714,31.692 44.605,31.864 44.753 M359.075 44.775 C 359.075 44.822,360.077 45.363,361.301 45.976 C 362.526 46.590,363.527 47.053,363.527 47.006 C 363.527 46.959,362.526 46.418,361.301 45.805 C 360.077 45.191,359.075 44.728,359.075 44.775 M29.440 45.656 C 26.154 48.075,20.348 54.629,14.215 62.842 C 11.666 66.257,11.657 66.270,12.014 65.925 C 12.160 65.783,13.466 64.088,14.916 62.158 C 20.935 54.140,26.262 48.164,29.525 45.766 C 30.690 44.910,30.747 44.863,30.612 44.863 C 30.560 44.863,30.033 45.220,29.440 45.656 M33.733 45.462 C 34.157 45.689,34.580 45.875,34.675 45.875 C 34.769 45.875,34.499 45.689,34.075 45.462 C 33.652 45.235,33.228 45.050,33.134 45.050 C 33.039 45.050,33.309 45.235,33.733 45.462 M35.616 46.318 C 36.040 46.545,36.464 46.731,36.558 46.731 C 36.652 46.731,36.383 46.545,35.959 46.318 C 35.535 46.092,35.111 45.906,35.017 45.906 C 34.923 45.906,35.193 46.092,35.616 46.318 M38.185 47.517 C 38.797 47.838,39.375 48.100,39.469 48.100 C 39.563 48.100,39.140 47.838,38.527 47.517 C 37.915 47.197,37.337 46.934,37.243 46.934 C 37.149 46.934,37.573 47.197,38.185 47.517 M40.083 48.354 C 40.257 48.515,44.692 50.678,44.692 50.602 C 44.692 50.507,40.315 48.288,40.128 48.288 C 40.064 48.288,40.044 48.317,40.083 48.354 M370.890 50.771 C 372.256 51.467,373.450 52.037,373.545 52.037 C 373.639 52.037,372.598 51.467,371.233 50.771 C 369.867 50.074,368.673 49.504,368.579 49.504 C 368.485 49.504,369.525 50.074,370.890 50.771 M45.291 50.975 C 45.385 51.069,46.156 51.516,47.003 51.966 C 47.851 52.417,48.467 52.706,48.373 52.609 C 48.279 52.512,47.509 52.066,46.661 51.618 C 45.813 51.169,45.197 50.880,45.291 50.975 M375.514 52.997 C 376.314 53.411,377.046 53.750,377.140 53.750 C 377.235 53.750,376.657 53.411,375.856 52.997 C 375.056 52.582,374.324 52.243,374.229 52.243 C 374.135 52.243,374.713 52.582,375.514 52.997 M334.548 53.382 C 333.625 54.666,333.143 55.417,333.421 55.137 C 333.761 54.794,335.313 52.568,335.212 52.568 C 335.168 52.568,334.869 52.935,334.548 53.382 M48.644 52.801 C 48.820 52.994,52.226 55.120,52.226 55.038 C 52.226 54.994,51.590 54.549,50.813 54.048 C 49.410 53.144,48.454 52.595,48.644 52.801 M378.767 54.538 C 379.379 54.858,379.957 55.120,380.051 55.120 C 380.146 55.120,379.722 54.858,379.110 54.538 C 378.497 54.217,377.920 53.955,377.825 53.955 C 377.731 53.955,378.155 54.217,378.767 54.538 M52.397 55.222 C 52.397 55.337,54.131 56.201,54.207 56.124 C 54.243 56.089,53.850 55.853,53.334 55.600 C 52.819 55.348,52.397 55.177,52.397 55.222 M381.164 55.651 C 381.682 55.924,382.183 56.148,382.277 56.148 C 382.372 56.148,382.025 55.924,381.507 55.651 C 380.989 55.377,380.488 55.153,380.394 55.153 C 380.300 55.153,380.646 55.377,381.164 55.651 M331.968 57.149 C 330.652 59.193,330.025 60.244,330.257 60.017 C 330.511 59.770,333.221 55.479,333.124 55.479 C 333.079 55.479,332.559 56.231,331.968 57.149 M382.877 56.451 C 383.807 57.130,384.438 57.833,384.927 58.733 C 385.209 59.251,385.440 59.598,385.440 59.503 C 385.446 58.830,383.977 57.007,382.962 56.430 C 382.452 56.140,382.452 56.141,382.877 56.451 M55.223 56.507 C 55.411 56.588,55.719 56.652,55.908 56.649 C 56.183 56.645,56.166 56.617,55.822 56.507 C 55.236 56.319,54.786 56.319,55.223 56.507 M59.375 56.806 C 61.094 56.834,63.906 56.834,65.625 56.806 C 67.344 56.778,65.938 56.755,62.500 56.755 C 59.063 56.755,57.656 56.778,59.375 56.806 M69.474 56.973 C 69.778 57.011,70.317 57.011,70.673 56.974 C 71.028 56.937,70.779 56.906,70.120 56.906 C 69.461 56.905,69.170 56.935,69.474 56.973 M71.875 57.141 C 72.087 57.182,72.434 57.182,72.646 57.141 C 72.857 57.101,72.684 57.067,72.260 57.067 C 71.836 57.067,71.663 57.101,71.875 57.141 M74.486 57.534 C 75.072 57.722,75.522 57.722,75.086 57.534 C 74.897 57.453,74.589 57.389,74.401 57.392 C 74.125 57.396,74.142 57.424,74.486 57.534 M76.884 58.305 C 77.119 58.439,77.389 58.550,77.483 58.550 C 77.577 58.550,77.461 58.439,77.226 58.305 C 76.991 58.170,76.721 58.060,76.627 58.060 C 76.533 58.060,76.648 58.170,76.884 58.305 M78.425 58.981 C 78.425 59.028,78.656 59.186,78.938 59.332 C 79.221 59.478,79.452 59.559,79.452 59.512 C 79.452 59.465,79.221 59.307,78.938 59.161 C 78.656 59.015,78.425 58.934,78.425 58.981 M79.709 59.707 C 79.803 59.800,80.342 60.225,80.908 60.652 C 82.172 61.607,83.311 62.812,84.162 64.095 C 84.724 64.940,85.184 65.466,84.827 64.854 C 83.940 63.335,82.435 61.641,80.993 60.540 C 80.038 59.811,79.382 59.385,79.709 59.707 M56.884 60.470 C 57.983 60.872,57.716 61.656,56.032 62.967 C 52.776 65.503,49.356 69.362,47.948 72.089 C 47.588 72.788,47.855 72.437,48.926 70.805 C 50.877 67.833,53.518 65.019,56.403 62.841 C 57.942 61.679,58.123 60.224,56.721 60.287 C 56.529 60.296,56.588 60.362,56.884 60.470 M52.723 61.322 C 50.225 62.928,46.878 66.164,45.040 68.750 C 44.575 69.404,45.256 68.652,46.459 67.184 C 48.355 64.871,50.973 62.543,53.158 61.229 C 53.717 60.892,54.095 60.616,53.998 60.616 C 53.900 60.616,53.327 60.934,52.723 61.322 M329.064 61.858 C 328.462 62.898,328.185 63.469,328.378 63.271 C 328.611 63.031,329.666 61.130,329.567 61.130 C 329.521 61.130,329.295 61.458,329.064 61.858 M386.057 61.473 C 386.120 61.708,386.243 62.016,386.330 62.158 C 386.441 62.336,386.454 62.284,386.374 61.986 C 386.311 61.751,386.189 61.443,386.101 61.301 C 385.991 61.123,385.977 61.175,386.057 61.473 M386.571 62.842 C 386.634 63.078,386.757 63.386,386.844 63.527 C 386.954 63.706,386.968 63.654,386.888 63.356 C 386.825 63.121,386.702 62.812,386.615 62.671 C 386.505 62.493,386.491 62.545,386.571 62.842 M326.703 66.285 C 325.944 67.802,325.349 69.070,325.381 69.103 C 325.414 69.136,326.073 67.894,326.846 66.345 C 327.620 64.795,328.214 63.527,328.168 63.527 C 328.122 63.527,327.463 64.769,326.703 66.285 M85.222 65.837 C 85.378 66.165,85.537 66.404,85.574 66.367 C 85.652 66.288,85.133 65.240,85.015 65.240 C 84.972 65.240,85.065 65.508,85.222 65.837 M387.941 66.438 C 388.004 66.674,388.127 66.982,388.214 67.123 C 388.324 67.302,388.338 67.250,388.258 66.952 C 388.195 66.717,388.072 66.408,387.985 66.267 C 387.875 66.089,387.861 66.141,387.941 66.438 M9.799 68.878 C 7.532 72.066,6.469 73.630,6.570 73.630 C 6.612 73.630,7.493 72.417,8.528 70.933 C 9.563 69.450,10.731 67.793,11.122 67.252 C 11.514 66.710,11.794 66.267,11.745 66.267 C 11.696 66.267,10.820 67.442,9.799 68.878 M85.728 66.952 C 85.923 67.723,86.324 68.666,86.209 68.084 C 86.155 67.812,86.001 67.350,85.866 67.057 C 85.681 66.656,85.647 66.630,85.728 66.952 M388.454 67.808 C 388.517 68.044,388.640 68.352,388.728 68.493 C 388.838 68.672,388.851 68.619,388.772 68.322 C 388.709 68.086,388.586 67.778,388.499 67.637 C 388.388 67.458,388.375 67.511,388.454 67.808 M388.968 69.178 C 389.031 69.414,389.154 69.722,389.241 69.863 C 389.352 70.042,389.365 69.989,389.285 69.692 C 389.222 69.456,389.099 69.148,389.012 69.007 C 388.902 68.828,388.888 68.881,388.968 69.178 M66.824 69.132 C 67.177 69.169,67.755 69.169,68.108 69.132 C 68.461 69.095,68.172 69.064,67.466 69.064 C 66.759 69.064,66.470 69.095,66.824 69.132 M44.213 69.906 C 43.648 70.737,42.691 72.394,42.859 72.250 C 43.025 72.109,44.851 69.178,44.774 69.178 C 44.738 69.178,44.486 69.506,44.213 69.906 M64.983 69.357 C 64.744 69.465,64.848 69.481,65.325 69.408 C 65.702 69.351,66.042 69.276,66.082 69.241 C 66.229 69.111,65.312 69.208,64.983 69.357 M70.120 69.521 C 70.844 69.705,71.466 69.705,70.890 69.521 C 70.655 69.445,70.270 69.385,70.034 69.387 C 69.650 69.390,69.658 69.403,70.120 69.521 M325.028 69.785 C 324.741 70.414,324.796 70.549,325.106 69.976 C 325.251 69.709,325.337 69.458,325.298 69.419 C 325.259 69.380,325.137 69.544,325.028 69.785 M62.909 70.308 C 61.058 71.543,57.709 75.946,57.712 77.140 C 57.712 77.235,58.088 76.603,58.548 75.736 C 59.858 73.270,61.785 71.015,63.217 70.275 C 63.482 70.138,63.699 69.989,63.699 69.944 C 63.699 69.803,63.591 69.852,62.909 70.308 M72.346 70.034 C 72.534 70.115,72.804 70.181,72.945 70.181 C 73.107 70.181,73.075 70.127,72.860 70.034 C 72.671 69.953,72.402 69.887,72.260 69.887 C 72.098 69.887,72.130 69.941,72.346 70.034 M389.482 70.548 C 389.545 70.783,389.668 71.092,389.755 71.233 C 389.865 71.411,389.879 71.359,389.799 71.062 C 389.736 70.826,389.613 70.518,389.526 70.377 C 389.416 70.198,389.402 70.250,389.482 70.548 M86.695 71.233 C 86.695 71.751,86.727 71.963,86.766 71.704 C 86.806 71.445,86.806 71.021,86.766 70.762 C 86.727 70.503,86.695 70.715,86.695 71.233 M324.514 70.983 C 324.227 71.613,324.282 71.747,324.592 71.175 C 324.737 70.908,324.824 70.657,324.784 70.618 C 324.745 70.579,324.624 70.743,324.514 70.983 M76.010 71.249 C 76.424 71.432,76.793 71.552,76.830 71.515 C 76.904 71.441,75.585 70.883,75.382 70.903 C 75.313 70.909,75.596 71.065,76.010 71.249 M389.995 71.918 C 390.058 72.153,390.181 72.461,390.269 72.603 C 390.379 72.781,390.392 72.729,390.313 72.432 C 390.250 72.196,390.127 71.888,390.040 71.747 C 389.929 71.568,389.916 71.620,389.995 71.918 M324.079 72.010 C 324.021 72.163,323.979 72.417,323.987 72.574 C 323.995 72.731,324.070 72.632,324.153 72.354 C 324.314 71.814,324.257 71.547,324.079 72.010 M80.736 73.428 C 82.149 74.160,83.929 75.160,84.692 75.650 C 86.343 76.711,87.057 76.647,86.588 75.478 C 86.540 75.356,86.494 75.464,86.486 75.718 C 86.464 76.482,86.203 76.434,84.470 75.347 C 82.862 74.339,78.594 72.085,78.308 72.093 C 78.231 72.095,79.324 72.696,80.736 73.428 M42.115 73.476 C 41.824 74.051,41.615 74.549,41.650 74.584 C 41.684 74.618,41.959 74.148,42.259 73.539 C 42.559 72.930,42.768 72.432,42.723 72.432 C 42.679 72.432,42.405 72.902,42.115 73.476 M47.080 73.647 C 46.790 74.222,46.581 74.720,46.616 74.755 C 46.650 74.790,46.924 74.319,47.225 73.710 C 47.525 73.101,47.734 72.603,47.689 72.603 C 47.644 72.603,47.370 73.073,47.080 73.647 M323.845 73.545 C 323.846 73.921,323.882 74.055,323.922 73.842 C 323.963 73.629,323.962 73.321,323.919 73.157 C 323.876 72.994,323.843 73.168,323.845 73.545 M390.509 73.288 C 390.572 73.523,390.695 73.831,390.782 73.973 C 390.893 74.151,390.906 74.099,390.827 73.801 C 390.764 73.566,390.641 73.258,390.553 73.116 C 390.443 72.938,390.430 72.990,390.509 73.288 M86.697 74.058 C 86.698 74.623,86.730 74.834,86.768 74.526 C 86.806 74.218,86.805 73.756,86.766 73.499 C 86.727 73.241,86.696 73.493,86.697 74.058 M6.199 74.007 C 5.889 74.316,5.951 74.621,6.347 74.747 C 6.542 74.809,6.850 75.103,7.032 75.401 C 7.213 75.698,7.362 75.835,7.362 75.705 C 7.363 75.575,7.086 75.207,6.747 74.887 C 6.240 74.409,6.167 74.261,6.339 74.054 C 6.591 73.751,6.489 73.717,6.199 74.007 M41.295 75.264 C 41.008 75.894,41.063 76.028,41.373 75.456 C 41.518 75.188,41.604 74.938,41.565 74.899 C 41.526 74.859,41.404 75.024,41.295 75.264 M391.194 75.171 C 391.257 75.407,391.380 75.715,391.467 75.856 C 391.578 76.035,391.591 75.982,391.511 75.685 C 391.448 75.449,391.326 75.141,391.238 75.000 C 391.128 74.821,391.114 74.874,391.194 75.171 M46.072 75.952 C 45.871 76.489,45.737 76.958,45.773 76.995 C 45.810 77.031,46.002 76.620,46.201 76.081 C 46.399 75.542,46.534 75.073,46.500 75.039 C 46.466 75.004,46.273 75.416,46.072 75.952 M324.584 75.771 C 324.747 76.053,325.773 77.433,326.865 78.837 C 335.176 89.518,345.610 99.260,356.433 106.440 C 361.996 110.131,361.492 110.194,367.591 105.029 C 381.594 93.172,392.123 83.350,392.123 82.147 C 392.123 82.045,391.873 82.341,391.567 82.804 C 390.019 85.148,379.284 94.992,366.560 105.736 C 361.646 109.886,361.867 109.874,356.433 106.269 C 344.683 98.473,333.428 87.658,324.602 75.681 C 324.293 75.262,324.292 75.263,324.584 75.771 M40.772 76.560 C 40.667 76.863,40.611 77.140,40.647 77.177 C 40.684 77.214,40.800 76.996,40.906 76.693 C 41.011 76.391,41.067 76.113,41.031 76.077 C 40.994 76.040,40.878 76.258,40.772 76.560 M391.721 76.541 C 391.917 77.312,392.317 78.255,392.202 77.673 C 392.149 77.401,391.994 76.939,391.859 76.646 C 391.674 76.245,391.640 76.219,391.721 76.541 M45.392 77.927 C 45.276 78.313,45.213 78.661,45.252 78.699 C 45.290 78.738,45.417 78.453,45.532 78.067 C 45.648 77.680,45.711 77.332,45.673 77.294 C 45.634 77.255,45.508 77.540,45.392 77.927 M57.383 77.928 C 57.278 78.229,57.197 78.561,57.204 78.664 C 57.210 78.768,57.326 78.551,57.461 78.183 C 57.596 77.814,57.677 77.483,57.640 77.446 C 57.604 77.410,57.488 77.626,57.383 77.928 M39.918 79.242 C 39.718 79.983,39.560 80.699,39.567 80.834 C 39.574 80.968,39.768 80.393,39.998 79.554 C 40.228 78.716,40.386 78.000,40.349 77.963 C 40.312 77.926,40.118 78.501,39.918 79.242 M7.901 78.767 C 7.901 78.908,7.967 79.178,8.048 79.366 C 8.141 79.582,8.195 79.614,8.195 79.452 C 8.195 79.311,8.129 79.041,8.048 78.853 C 7.955 78.637,7.901 78.605,7.901 78.767 M314.858 79.120 C 313.719 79.721,312.324 81.436,312.330 82.228 C 312.331 82.349,312.512 82.063,312.733 81.592 C 313.237 80.513,314.057 79.696,315.154 79.176 C 315.625 78.953,315.895 78.773,315.753 78.776 C 315.612 78.780,315.209 78.934,314.858 79.120 M56.947 79.379 C 56.884 79.630,56.866 79.868,56.906 79.908 C 56.946 79.949,57.031 79.776,57.094 79.525 C 57.157 79.274,57.175 79.036,57.135 78.996 C 57.095 78.955,57.010 79.128,56.947 79.379 M318.065 79.386 C 318.348 79.662,318.756 80.117,318.972 80.398 C 319.188 80.678,319.127 80.543,318.837 80.097 C 318.546 79.651,318.139 79.196,317.930 79.086 C 317.642 78.933,317.674 79.005,318.065 79.386 M392.509 79.880 C 392.511 80.257,392.546 80.391,392.587 80.178 C 392.628 79.965,392.626 79.657,392.583 79.493 C 392.541 79.329,392.507 79.503,392.509 79.880 M8.660 81.164 C 8.723 81.400,8.846 81.708,8.933 81.849 C 9.043 82.028,9.057 81.976,8.977 81.678 C 8.914 81.443,8.791 81.134,8.704 80.993 C 8.594 80.815,8.580 80.867,8.660 81.164 M319.556 81.293 C 319.699 81.458,321.160 83.288,322.802 85.360 C 326.618 90.174,328.490 92.354,331.184 95.120 C 332.376 96.344,333.390 97.500,333.437 97.688 C 333.521 98.027,333.522 98.027,333.542 97.684 C 333.554 97.463,333.089 96.873,332.258 96.057 C 329.991 93.832,326.774 90.130,323.072 85.488 C 321.101 83.016,319.445 80.993,319.392 80.993 C 319.340 80.993,319.413 81.128,319.556 81.293 M9.087 82.277 C 9.087 82.372,9.198 82.641,9.332 82.877 C 9.467 83.112,9.577 83.228,9.577 83.134 C 9.577 83.039,9.467 82.770,9.332 82.534 C 9.198 82.299,9.087 82.183,9.087 82.277 M44.392 82.791 C 44.394 83.168,44.429 83.302,44.470 83.089 C 44.511 82.876,44.510 82.568,44.467 82.404 C 44.424 82.240,44.391 82.414,44.392 82.791 M56.204 82.877 C 56.204 83.206,56.239 83.341,56.282 83.176 C 56.325 83.012,56.325 82.742,56.282 82.577 C 56.239 82.412,56.204 82.547,56.204 82.877 M312.215 83.733 C 312.215 84.439,312.245 84.728,312.282 84.375 C 312.319 84.022,312.319 83.444,312.282 83.091 C 312.245 82.738,312.215 83.027,312.215 83.733 M39.081 83.390 C 39.081 83.720,39.116 83.855,39.159 83.690 C 39.202 83.525,39.202 83.256,39.159 83.091 C 39.116 82.926,39.081 83.061,39.081 83.390 M9.603 83.476 C 9.603 83.570,9.751 83.917,9.932 84.247 C 10.112 84.576,10.260 84.769,10.260 84.675 C 10.260 84.580,10.112 84.234,9.932 83.904 C 9.751 83.574,9.603 83.382,9.603 83.476 M56.054 85.017 C 56.053 85.865,56.082 86.233,56.118 85.836 C 56.154 85.438,56.155 84.745,56.119 84.295 C 56.084 83.844,56.054 84.170,56.054 85.017 M44.250 86.986 C 44.250 88.823,44.275 89.574,44.306 88.656 C 44.337 87.738,44.337 86.235,44.306 85.317 C 44.275 84.399,44.250 85.150,44.250 86.986 M38.910 84.589 C 38.910 84.919,38.945 85.054,38.988 84.889 C 39.031 84.724,39.031 84.454,38.988 84.289 C 38.945 84.125,38.910 84.259,38.910 84.589 M10.274 84.992 C 10.274 85.178,11.980 88.527,12.075 88.527 C 12.152 88.527,10.501 85.120,10.340 84.946 C 10.304 84.907,10.274 84.927,10.274 84.992 M38.745 86.130 C 38.745 86.554,38.779 86.727,38.819 86.515 C 38.860 86.304,38.860 85.957,38.819 85.745 C 38.779 85.533,38.745 85.706,38.745 86.130 M56.178 86.901 C 56.167 87.263,56.936 89.041,57.103 89.041 C 57.157 89.041,57.070 88.791,56.911 88.485 C 56.751 88.179,56.523 87.620,56.404 87.243 C 56.285 86.866,56.183 86.712,56.178 86.901 M38.598 90.154 C 38.598 91.849,38.624 92.520,38.655 91.644 C 38.686 90.768,38.686 89.381,38.655 88.562 C 38.623 87.742,38.598 88.459,38.598 90.154 M313.014 87.221 C 313.014 87.406,313.694 88.699,313.791 88.699 C 313.838 88.699,313.712 88.371,313.510 87.971 C 313.113 87.184,313.014 87.034,313.014 87.221 M12.522 89.426 C 13.404 91.156,15.676 94.796,16.226 95.361 L 16.824 95.976 16.298 95.338 C 15.772 94.701,13.396 90.805,12.693 89.426 C 12.489 89.026,12.283 88.699,12.236 88.699 C 12.189 88.699,12.318 89.026,12.522 89.426 M314.044 89.212 C 315.062 91.185,317.757 94.662,320.024 96.927 C 321.721 98.624,324.126 100.514,324.587 100.514 C 324.664 100.514,324.114 100.114,323.365 99.626 C 320.851 97.987,317.633 94.475,315.078 90.582 C 313.954 88.869,313.680 88.505,314.044 89.212 M57.777 89.848 C 58.362 90.477,60.485 91.789,60.898 91.776 C 60.979 91.774,60.473 91.468,59.773 91.097 C 59.074 90.726,58.188 90.131,57.804 89.775 L 57.106 89.127 57.777 89.848 M44.389 90.925 C 44.389 91.254,44.424 91.389,44.467 91.224 C 44.510 91.060,44.510 90.790,44.467 90.625 C 44.424 90.460,44.389 90.595,44.389 90.925 M61.487 92.018 C 61.661 92.179,65.411 94.001,65.411 93.924 C 65.411 93.829,61.719 91.952,61.533 91.952 C 61.468 91.952,61.448 91.982,61.487 92.018 M38.738 93.836 C 38.738 94.165,38.774 94.300,38.817 94.135 C 38.860 93.970,38.860 93.701,38.817 93.536 C 38.774 93.371,38.738 93.506,38.738 93.836 M65.582 94.086 C 65.582 94.133,65.890 94.328,66.267 94.521 C 66.644 94.713,66.952 94.831,66.952 94.784 C 66.952 94.737,66.644 94.541,66.267 94.349 C 65.890 94.157,65.582 94.038,65.582 94.086 M45.120 94.570 C 45.242 95.180,45.905 96.960,45.982 96.884 C 46.014 96.852,45.811 96.211,45.532 95.459 C 45.252 94.707,45.067 94.308,45.120 94.570 M67.123 94.940 C 67.123 94.987,67.354 95.145,67.637 95.291 C 67.920 95.437,68.151 95.518,68.151 95.471 C 68.151 95.424,67.920 95.266,67.637 95.120 C 67.354 94.974,67.123 94.893,67.123 94.940 M68.550 95.753 C 68.723 95.876,69.879 96.616,71.119 97.399 C 72.359 98.182,73.682 99.065,74.058 99.362 C 74.435 99.658,74.628 99.755,74.486 99.577 C 74.205 99.223,70.463 96.737,69.092 95.994 C 68.622 95.738,68.378 95.630,68.550 95.753 M17.851 96.180 C 18.016 96.223,18.286 96.223,18.450 96.180 C 18.615 96.137,18.480 96.101,18.151 96.101 C 17.821 96.101,17.686 96.137,17.851 96.180 M19.221 96.351 C 19.386 96.394,19.655 96.394,19.820 96.351 C 19.985 96.308,19.850 96.273,19.521 96.273 C 19.191 96.273,19.056 96.308,19.221 96.351 M20.507 96.525 C 20.720 96.566,21.028 96.565,21.192 96.522 C 21.356 96.479,21.182 96.445,20.805 96.447 C 20.428 96.449,20.294 96.484,20.507 96.525 M22.048 96.696 C 22.261 96.737,22.569 96.736,22.733 96.693 C 22.897 96.650,22.723 96.617,22.346 96.619 C 21.969 96.620,21.835 96.655,22.048 96.696 M23.587 96.867 C 23.799 96.908,24.146 96.908,24.358 96.867 C 24.570 96.827,24.396 96.793,23.973 96.793 C 23.549 96.793,23.375 96.827,23.587 96.867 M25.216 97.041 C 25.477 97.080,25.862 97.079,26.073 97.038 C 26.283 96.998,26.070 96.965,25.599 96.967 C 25.128 96.968,24.956 97.001,25.216 97.041 M27.186 97.213 C 27.494 97.251,27.956 97.250,28.214 97.211 C 28.471 97.172,28.219 97.141,27.654 97.142 C 27.089 97.143,26.879 97.175,27.186 97.213 M46.062 97.153 C 46.062 97.338,46.742 98.630,46.839 98.630 C 46.886 98.630,46.760 98.303,46.558 97.902 C 46.161 97.115,46.062 96.965,46.062 97.153 M29.585 97.386 C 29.988 97.422,30.604 97.422,30.955 97.385 C 31.306 97.348,30.976 97.318,30.223 97.319 C 29.469 97.320,29.182 97.350,29.585 97.386 M33.262 97.559 C 34.086 97.590,35.435 97.590,36.259 97.559 C 37.083 97.528,36.408 97.502,34.760 97.502 C 33.112 97.502,32.438 97.528,33.262 97.559 M332.277 99.222 C 331.538 99.988,330.985 100.388,330.308 100.648 C 329.790 100.847,329.482 101.012,329.623 101.015 C 330.406 101.030,332.738 99.359,333.238 98.423 C 333.467 97.996,333.433 98.024,332.277 99.222 M47.020 99.015 C 47.926 100.602,50.023 102.857,51.541 103.876 C 53.239 105.017,53.111 104.781,51.370 103.560 C 50.043 102.630,48.592 101.141,47.694 99.786 C 47.122 98.925,46.678 98.416,47.020 99.015 M73.716 101.082 C 73.245 101.535,72.166 102.372,71.318 102.941 C 69.597 104.096,69.269 104.364,70.291 103.780 C 71.779 102.931,74.877 100.474,74.658 100.318 C 74.610 100.284,74.187 100.628,73.716 101.082 M325.942 101.026 C 326.269 101.168,327.532 101.265,327.383 101.137 C 327.344 101.103,326.926 101.031,326.455 100.977 C 325.905 100.913,325.721 100.931,325.942 101.026 M337.741 102.611 C 337.417 102.993,337.417 102.994,337.757 102.715 C 337.945 102.560,338.253 102.395,338.442 102.349 C 338.771 102.269,338.771 102.265,338.426 102.246 C 338.228 102.235,337.920 102.399,337.741 102.611 M339.318 102.771 C 339.589 102.977,340.235 103.541,340.753 104.024 C 342.635 105.778,353.662 114.256,354.689 114.737 C 354.962 114.865,354.947 114.832,354.628 114.603 C 349.599 110.986,342.475 105.441,340.469 103.582 C 339.767 102.930,339.109 102.397,339.008 102.397 C 338.907 102.397,339.046 102.566,339.318 102.771 M337.531 104.551 C 337.494 105.579,337.195 105.928,335.785 106.587 C 335.269 106.828,335.039 106.976,335.274 106.916 C 336.878 106.502,337.715 105.648,337.627 104.516 L 337.562 103.682 337.531 104.551 M68.664 104.538 C 68.241 104.765,67.955 104.954,68.029 104.958 C 68.211 104.968,69.521 104.296,69.521 104.192 C 69.521 104.078,69.528 104.075,68.664 104.538 M52.911 104.707 C 52.911 104.824,53.959 105.344,54.038 105.266 C 54.075 105.229,53.837 105.070,53.508 104.914 C 53.180 104.757,52.911 104.664,52.911 104.707 M66.866 105.321 C 66.490 105.502,66.374 105.602,66.610 105.543 C 67.094 105.423,67.985 104.976,67.723 104.985 C 67.628 104.989,67.243 105.139,66.866 105.321 M55.070 105.729 C 55.363 105.864,55.826 106.018,56.098 106.072 C 56.521 106.155,56.506 106.136,55.993 105.935 C 55.068 105.572,54.415 105.426,55.070 105.729 M64.983 105.912 C 64.606 106.036,64.452 106.138,64.640 106.138 C 64.829 106.138,65.253 106.034,65.582 105.908 C 66.351 105.612,65.884 105.615,64.983 105.912 M57.577 106.454 C 57.742 106.497,58.012 106.497,58.176 106.454 C 58.341 106.411,58.206 106.375,57.877 106.375 C 57.547 106.375,57.412 106.411,57.577 106.454 M62.714 106.454 C 62.879 106.497,63.149 106.497,63.313 106.454 C 63.478 106.411,63.343 106.375,63.014 106.375 C 62.684 106.375,62.549 106.411,62.714 106.454 M59.461 106.633 C 60.002 106.667,60.888 106.667,61.430 106.633 C 61.971 106.599,61.528 106.572,60.445 106.572 C 59.362 106.572,58.919 106.599,59.461 106.633 M333.476 107.281 C 332.991 107.406,332.805 107.503,333.048 107.505 C 333.283 107.506,333.784 107.406,334.161 107.282 C 335.035 106.994,334.596 106.993,333.476 107.281 M329.577 107.829 C 329.881 107.867,330.420 107.868,330.775 107.830 C 331.131 107.793,330.882 107.762,330.223 107.762 C 329.563 107.761,329.273 107.791,329.577 107.829 M328.490 108.124 C 328.438 108.259,328.426 108.510,328.463 108.680 C 328.505 108.873,328.563 108.781,328.619 108.433 C 328.712 107.850,328.651 107.704,328.490 108.124 M328.596 109.186 C 328.596 110.429,332.865 114.726,335.531 116.166 C 336.515 116.697,336.285 116.522,334.444 115.339 C 332.765 114.259,330.071 111.552,329.236 110.107 C 328.884 109.497,328.596 109.082,328.596 109.186 M373.202 111.409 C 372.184 112.360,370.949 113.348,368.984 114.782 C 368.699 114.991,368.680 115.031,368.921 114.917 C 369.531 114.629,371.726 112.926,373.133 111.650 C 374.645 110.278,374.867 110.217,374.304 111.328 C 373.132 113.642,370.445 116.597,368.321 117.908 C 367.249 118.570,366.952 118.850,367.773 118.426 C 369.964 117.293,373.159 113.913,374.462 111.351 C 375.203 109.895,374.804 109.913,373.202 111.409 M355.137 114.981 C 355.137 115.098,356.185 115.618,356.264 115.540 C 356.301 115.503,356.063 115.344,355.734 115.188 C 355.406 115.031,355.137 114.938,355.137 114.981 M361.473 115.608 C 361.143 115.897,361.034 116.052,361.230 115.953 C 361.426 115.853,361.686 115.652,361.807 115.506 C 362.165 115.075,362.735 115.198,363.356 115.839 C 363.676 116.169,363.997 116.438,364.071 116.438 C 364.144 116.438,363.870 116.130,363.462 115.753 C 362.575 114.936,362.264 114.914,361.473 115.608 M367.937 115.338 C 367.296 115.685,367.335 115.830,367.979 115.497 C 368.262 115.350,368.493 115.194,368.493 115.150 C 368.493 115.040,368.475 115.046,367.937 115.338 M356.996 115.861 C 357.312 115.999,357.813 116.149,358.109 116.195 C 358.405 116.241,358.185 116.123,357.620 115.933 C 356.428 115.532,356.175 115.503,356.996 115.861 M359.121 116.390 C 359.381 116.429,359.766 116.428,359.977 116.388 C 360.187 116.347,359.974 116.315,359.503 116.316 C 359.033 116.317,358.860 116.351,359.121 116.390 M365.154 116.438 L 364.298 116.556 365.068 116.580 C 365.492 116.593,365.955 116.530,366.096 116.438 C 366.237 116.347,366.276 116.283,366.182 116.297 C 366.087 116.310,365.625 116.374,365.154 116.438 M336.473 116.694 C 336.473 116.810,337.863 117.502,337.941 117.424 C 337.977 117.388,337.661 117.191,337.239 116.987 C 336.818 116.782,336.473 116.650,336.473 116.694 M338.527 117.723 C 338.763 117.857,339.033 117.967,339.127 117.967 C 339.221 117.967,339.105 117.857,338.870 117.723 C 338.634 117.588,338.365 117.478,338.271 117.478 C 338.176 117.478,338.292 117.588,338.527 117.723 M339.726 118.222 C 339.961 118.348,340.347 118.498,340.582 118.557 C 340.818 118.616,340.702 118.515,340.325 118.334 C 339.550 117.962,339.070 117.871,339.726 118.222 M366.438 119.007 C 366.109 119.187,365.901 119.338,365.976 119.342 C 366.157 119.352,367.123 118.849,367.123 118.746 C 367.123 118.634,367.113 118.637,366.438 119.007 M342.894 119.349 C 343.082 119.430,343.352 119.496,343.493 119.496 C 343.655 119.496,343.623 119.442,343.408 119.349 C 343.219 119.268,342.949 119.202,342.808 119.202 C 342.646 119.202,342.678 119.257,342.894 119.349 M364.812 119.704 C 364.435 119.885,364.319 119.986,364.555 119.927 C 365.040 119.806,365.930 119.360,365.668 119.369 C 365.574 119.372,365.188 119.523,364.812 119.704 M344.435 119.782 C 344.812 119.906,345.274 120.007,345.462 120.006 C 345.651 120.005,345.420 119.896,344.949 119.765 C 343.877 119.467,343.515 119.479,344.435 119.782 M362.757 120.377 C 362.541 120.469,362.509 120.524,362.671 120.524 C 362.812 120.524,363.082 120.458,363.271 120.377 C 363.486 120.284,363.518 120.230,363.356 120.230 C 363.215 120.230,362.945 120.296,362.757 120.377 M351.500 121.183 C 351.713 121.224,352.022 121.222,352.185 121.179 C 352.349 121.136,352.175 121.103,351.798 121.105 C 351.421 121.107,351.287 121.142,351.500 121.183 M358.947 121.180 C 359.112 121.223,359.381 121.223,359.546 121.180 C 359.711 121.137,359.576 121.101,359.247 121.101 C 358.917 121.101,358.782 121.137,358.947 121.180 M353.981 121.360 C 354.805 121.392,356.154 121.392,356.978 121.360 C 357.802 121.329,357.128 121.303,355.479 121.303 C 353.831 121.303,353.157 121.329,353.981 121.360 M92.723 173.176 C 78.646 178.999,62.997 191.726,55.846 203.166 C 51.099 210.759,46.233 225.735,46.233 232.748 C 46.233 236.990,54.592 242.495,63.844 244.345 C 79.853 247.547,90.579 243.259,97.243 230.993 C 98.227 229.181,98.231 229.194,96.161 227.069 C 94.010 224.861,94.010 224.859,94.522 221.816 C 95.027 218.822,95.140 218.729,97.015 219.777 C 102.280 222.722,110.270 230.107,113.717 235.216 C 114.601 236.526,114.968 236.737,115.233 236.087 C 117.741 229.938,121.673 223.792,126.396 218.638 C 128.250 216.615,128.254 216.773,126.327 215.134 C 114.825 205.348,104.489 192.030,97.306 177.740 C 95.295 173.738,94.603 172.594,94.202 172.606 C 94.142 172.608,93.476 172.864,92.723 173.176 M175.991 182.115 C 169.847 183.071,163.941 185.882,159.819 189.811 C 157.922 191.619,158.029 191.946,161.722 195.642 C 174.710 208.640,202.182 217.154,222.432 214.459 C 228.756 213.617,237.106 211.304,238.021 210.140 C 239.302 208.512,237.095 202.825,233.432 198.315 C 226.350 189.594,213.568 186.073,203.502 190.072 C 201.994 190.671,202.025 190.679,200.858 189.354 C 196.271 184.143,184.665 180.764,175.991 182.115 M299.043 218.829 C 281.172 220.442,265.900 234.403,255.771 258.386 C 254.873 260.512,254.378 261.025,253.631 260.607 C 252.468 259.956,252.479 259.819,254.447 250.688 C 255.600 245.337,255.931 243.524,255.811 243.208 C 255.612 242.683,249.226 233.637,248.620 233.019 C 246.580 230.943,234.239 231.288,228.459 233.581 C 214.777 239.011,206.628 256.679,209.180 275.383 C 209.755 279.597,210.162 280.431,211.875 280.894 C 215.768 281.948,239.877 301.659,255.874 316.866 C 259.820 320.617,259.588 320.458,259.593 319.413 C 259.740 291.956,264.619 275.571,279.589 252.272 C 287.837 239.434,295.288 231.923,304.110 227.553 C 308.720 225.269,311.491 224.633,312.635 225.595 C 313.783 226.561,313.716 228.038,312.498 228.628 C 308.494 230.567,307.303 231.214,305.527 232.415 C 293.973 240.227,282.660 255.607,273.887 275.428 C 263.852 298.098,263.022 325.481,272.076 335.141 C 280.822 344.474,294.576 340.834,307.812 325.685 C 323.700 307.502,335.047 283.278,338.213 260.788 C 338.577 258.203,338.522 250.097,338.123 247.517 C 336.287 235.639,330.587 227.463,320.921 222.848 C 314.851 219.949,305.553 218.241,299.043 218.829 M131.575 220.862 C 126.904 224.259,120.666 234.132,119.844 239.429 C 118.587 247.530,128.803 248.535,136.116 241.030 C 137.094 240.027,137.162 240.144,133.818 237.074 C 129.362 232.982,129.452 233.089,129.452 231.866 C 129.452 230.193,131.131 227.259,133.962 223.983 C 135.477 222.230,135.482 222.364,133.864 221.228 C 132.445 220.232,132.443 220.231,131.575 220.862 M297.346 225.511 L 297.346 228.676 295.897 228.976 C 295.100 229.142,293.841 229.479,293.099 229.726 C 292.349 229.976,291.687 230.110,291.607 230.028 C 291.385 229.799,291.075 223.776,291.273 223.537 C 291.606 223.136,295.357 222.274,296.575 222.318 L 297.346 222.346 297.346 225.511 M288.708 225.043 C 288.714 225.255,288.819 226.738,288.943 228.339 C 289.206 231.753,289.349 231.294,287.711 232.288 C 282.998 235.146,277.960 240.161,273.894 246.041 C 273.169 247.088,272.510 247.945,272.428 247.945 C 272.010 247.945,268.507 242.417,268.697 242.057 C 269.527 240.486,273.431 235.822,276.125 233.184 C 280.964 228.445,288.669 223.460,288.708 225.043 M55.593 227.541 C 56.614 228.185,57.853 228.936,58.347 229.210 C 59.459 229.827,59.456 229.580,58.414 234.161 C 57.768 237.002,57.536 237.768,57.306 237.813 C 56.865 237.898,51.974 234.979,51.633 234.428 C 51.545 234.286,53.171 226.813,53.354 226.517 C 53.513 226.260,53.700 226.346,55.593 227.541 M86.029 232.357 C 87.403 233.954,88.527 235.335,88.527 235.426 C 88.527 235.653,86.034 237.512,84.626 238.334 C 78.696 241.798,69.723 242.327,61.901 239.674 C 60.395 239.164,60.421 239.390,61.380 235.098 C 62.315 230.911,62.074 231.195,64.147 231.831 C 71.413 234.058,78.458 233.370,82.277 230.059 C 83.289 229.182,83.309 229.195,86.029 232.357 " stroke="none" fill="#db242c" fill-rule="evenodd"></path><path id="path2" d="M210.669 0.558 C 209.991 1.561,209.551 2.807,209.461 3.977 C 209.365 5.227,209.655 6.338,209.990 6.003 C 210.331 5.662,210.853 5.823,212.575 6.795 C 226.331 14.567,239.772 27.206,249.501 41.518 C 251.047 43.793,251.236 43.802,254.288 41.762 C 256.776 40.099,256.737 40.178,255.753 38.799 C 253.967 36.296,255.858 37.167,261.558 41.474 C 292.717 65.012,308.605 100.536,305.042 138.699 C 301.660 174.931,279.210 207.316,246.226 223.544 C 243.218 225.024,243.111 225.042,239.511 224.680 C 232.920 224.017,223.924 226.562,217.271 230.971 L 215.450 232.179 211.621 230.230 C 204.573 226.643,197.309 223.730,190.273 221.669 C 189.397 221.412,188.110 220.939,187.412 220.616 C 185.731 219.839,182.675 218.974,179.013 218.237 C 166.119 215.641,156.923 216.642,151.884 221.190 C 150.622 222.329,150.733 222.341,147.502 220.736 C 135.280 214.663,123.705 204.772,114.722 192.723 C 95.833 167.386,89.414 139.349,94.952 106.370 C 99.647 78.410,123.842 46.501,150.467 33.155 C 152.264 32.255,152.624 32.199,152.996 32.766 C 153.498 33.532,155.231 42.178,156.245 48.973 C 156.969 53.825,156.889 53.760,161.182 52.976 C 163.358 52.579,163.347 52.604,162.759 49.187 C 161.206 40.160,159.229 30.451,157.695 24.313 C 156.370 19.011,155.711 17.014,154.482 14.588 L 154.195 14.022 151.969 14.074 C 147.468 14.180,147.518 13.943,149.997 23.339 C 150.564 25.486,151.027 27.284,151.027 27.334 C 151.027 27.384,150.739 27.247,150.386 27.029 C 149.176 26.281,148.230 26.441,145.548 27.846 C 134.182 33.803,122.715 42.822,114.663 52.138 C 112.560 54.570,112.556 54.742,114.527 57.316 L 115.736 58.897 114.092 60.998 C 113.187 62.154,112.416 63.136,112.377 63.182 C 112.338 63.227,111.443 62.822,110.386 62.283 C 107.599 60.858,107.357 60.906,105.478 63.248 C 102.684 66.731,100.075 71.045,96.975 77.312 C 95.810 79.666,94.769 81.569,94.662 81.541 C 94.364 81.462,91.438 79.430,91.438 79.302 C 91.438 79.241,92.104 78.771,92.917 78.259 C 94.678 77.150,94.752 77.013,95.037 74.315 C 96.000 65.212,91.036 56.254,82.705 52.060 C 77.562 49.471,72.161 48.816,60.873 49.412 L 58.990 49.511 55.565 47.609 C 48.984 43.952,41.237 40.200,37.189 38.709 C 33.988 37.531,31.741 38.256,29.790 41.096 L 29.529 41.476 28.249 40.430 C 25.906 38.515,25.490 38.709,19.857 44.343 C 12.016 52.186,4.834 61.423,0.800 68.853 C -0.496 71.240,-0.238 74.311,1.260 74.316 C 1.367 74.316,1.218 74.461,0.928 74.638 C -1.621 76.193,2.462 89.030,8.516 98.494 C 10.773 102.022,11.121 102.243,13.038 101.374 C 14.145 100.871,14.781 100.922,15.357 101.560 C 16.876 103.241,17.068 103.395,17.984 103.668 C 18.500 103.822,20.116 104.023,21.575 104.115 C 23.035 104.206,28.005 104.513,32.620 104.796 C 42.254 105.387,41.718 105.271,43.384 107.111 C 51.058 115.584,65.179 116.617,76.126 109.506 C 77.616 108.539,79.344 107.148,80.775 105.765 L 81.670 104.900 83.343 106.047 C 87.239 108.718,86.945 108.051,86.417 113.014 C 84.491 131.128,86.319 149.877,91.537 165.545 C 92.331 167.926,92.979 169.903,92.979 169.938 C 92.979 169.973,91.920 169.960,90.625 169.910 L 88.271 169.817 86.301 170.591 C 74.878 175.079,60.547 185.570,53.027 194.949 C 45.888 203.851,40.834 215.466,38.522 228.285 C 38.010 231.120,37.964 231.045,40.738 231.902 C 44.387 233.030,44.445 233.920,40.975 235.554 C 38.152 236.884,38.316 238.223,41.738 241.794 C 48.174 248.510,55.738 251.998,66.610 253.262 C 80.799 254.911,94.987 248.384,102.305 236.840 C 103.478 234.990,103.338 235.030,104.439 236.234 C 106.498 238.486,108.256 241.216,109.353 243.864 L 109.980 245.377 110.769 245.376 C 111.230 245.375,111.772 245.245,112.072 245.062 L 112.586 244.750 112.884 246.133 C 114.705 254.568,126.511 256.243,136.749 249.521 C 139.236 247.888,139.719 247.175,139.882 244.903 L 139.983 243.487 141.461 245.331 C 142.273 246.345,143.493 247.945,144.172 248.887 C 144.908 249.908,145.576 250.658,145.828 250.745 C 146.865 251.102,148.830 250.056,148.672 249.231 C 148.612 248.914,148.770 248.562,149.272 247.902 C 150.864 245.807,150.865 245.830,148.942 243.231 C 146.332 239.702,142.278 235.420,138.827 232.547 C 136.763 230.828,136.766 230.710,138.917 227.967 C 140.960 225.361,140.790 225.386,144.262 227.188 C 147.184 228.703,147.214 228.745,146.244 229.972 C 145.229 231.256,145.276 231.737,146.523 232.878 C 148.505 234.689,148.623 234.676,150.413 232.450 C 151.882 230.624,151.811 230.654,153.189 231.275 C 153.743 231.524,155.967 232.395,158.134 233.210 C 162.898 235.003,162.706 234.647,160.537 237.645 C 156.473 243.262,153.995 247.033,152.436 249.970 C 151.795 251.178,151.370 251.786,151.092 251.892 C 149.977 252.316,150.753 254.639,152.254 255.373 C 155.591 257.005,156.712 256.697,158.559 253.640 C 163.225 245.917,168.848 238.556,169.918 238.769 C 172.821 239.350,182.588 244.405,189.178 248.737 C 194.375 252.155,202.146 258.076,201.985 258.496 C 201.130 260.725,201.569 274.765,202.667 280.308 C 203.263 283.316,203.301 283.339,206.809 282.698 C 208.248 282.435,208.813 282.394,209.072 282.533 C 209.492 282.757,209.492 282.696,209.073 285.003 C 208.470 288.318,208.287 287.984,212.288 290.859 C 232.631 305.474,250.291 321.191,260.399 333.676 C 262.331 336.062,262.898 336.160,265.103 334.489 C 265.776 333.979,266.419 333.562,266.532 333.562 C 266.893 333.562,268.177 335.091,268.083 335.409 C 266.856 339.539,266.852 340.518,268.054 341.692 C 273.742 347.245,284.790 349.157,293.789 346.146 C 309.229 340.979,326.448 320.319,337.567 293.617 C 347.729 269.212,349.277 242.387,341.215 230.394 C 339.364 227.639,338.682 227.384,336.132 228.489 L 334.798 229.067 334.185 228.275 C 333.848 227.839,333.002 226.877,332.304 226.136 L 331.035 224.789 331.909 223.396 C 333.210 221.324,333.177 220.705,331.693 219.310 C 323.064 211.200,300.984 208.472,286.558 213.735 C 276.630 217.356,265.805 226.440,260.102 235.934 C 259.860 236.336,259.483 235.872,257.460 232.688 C 255.427 229.488,255.272 229.332,253.960 229.184 C 252.192 228.984,252.164 228.719,253.822 227.884 C 258.167 225.697,266.320 220.079,271.799 215.497 C 296.215 195.080,310.713 167.603,312.602 138.167 L 312.718 136.352 315.820 136.236 C 338.719 135.378,361.323 132.423,371.814 128.916 C 375.347 127.735,375.376 127.701,374.902 125.309 C 374.452 123.044,374.402 123.183,376.371 121.292 C 380.664 117.172,383.573 112.197,383.556 109.004 C 383.548 107.521,383.254 107.223,381.421 106.849 C 380.856 106.734,380.327 106.600,380.245 106.551 C 380.163 106.502,384.026 102.557,388.829 97.785 C 394.459 92.191,397.691 88.855,397.925 88.396 C 398.486 87.296,398.426 85.912,397.774 84.932 C 396.649 83.241,396.925 82.482,399.272 80.810 L 400.000 80.292 400.000 78.603 C 400.000 75.981,397.615 68.567,393.561 58.587 C 390.443 50.912,390.292 50.685,388.306 50.685 L 387.365 50.685 386.962 49.881 C 386.566 49.094,386.515 49.059,384.418 48.197 C 377.292 45.264,365.941 39.539,356.164 33.945 C 351.060 31.024,350.746 30.968,349.597 32.764 C 348.655 34.235,348.130 34.254,346.519 32.875 C 344.665 31.289,343.871 31.533,340.586 34.697 C 330.641 44.277,321.531 57.425,316.977 68.773 C 315.842 71.602,315.786 71.679,314.773 71.821 C 308.733 72.671,305.372 76.233,304.868 82.317 L 304.751 83.727 303.671 81.325 C 301.013 75.414,293.535 63.641,290.109 59.974 C 289.268 59.074,288.225 59.164,286.351 60.295 C 284.933 61.152,284.891 61.165,284.585 60.852 C 284.412 60.675,283.230 59.261,281.957 57.709 L 279.644 54.886 280.733 53.758 C 282.965 51.446,282.586 50.438,277.806 45.966 C 271.056 39.652,264.832 34.860,257.449 30.295 L 255.394 29.024 253.923 29.024 C 252.553 29.024,252.390 29.063,251.532 29.597 L 250.610 30.169 250.006 29.499 C 238.699 16.981,228.111 8.145,216.325 1.390 L 213.900 -0.000 212.472 0.001 C 211.054 0.002,211.042 0.006,210.669 0.558 M157.300 5.490 C 155.658 6.790,154.900 11.334,156.352 11.164 C 157.102 11.077,163.168 14.749,167.551 17.944 C 177.544 25.228,188.136 35.958,195.363 46.117 C 197.624 49.297,197.614 49.294,200.193 47.588 C 202.710 45.924,202.742 45.884,202.260 44.980 C 200.384 41.460,193.904 33.594,187.183 26.680 C 184.985 24.419,183.939 23.225,184.005 23.053 C 184.521 21.708,203.087 20.609,206.078 21.746 C 207.205 22.175,209.279 31.468,210.875 43.236 C 211.617 48.713,211.246 48.456,217.254 47.653 C 218.275 47.517,218.276 47.497,217.376 42.123 C 214.825 26.897,210.924 11.408,209.172 9.551 C 208.860 9.220,208.570 8.844,208.527 8.716 C 208.395 8.317,206.118 8.802,204.623 9.548 C 203.353 10.181,203.338 10.196,203.287 10.912 C 203.244 11.500,204.195 15.685,204.912 18.061 C 204.978 18.281,204.666 18.082,204.021 17.493 C 201.265 14.974,198.285 14.391,190.668 14.882 C 182.984 15.377,180.311 16.320,180.309 18.536 C 180.308 19.145,180.106 19.372,179.884 19.013 C 179.537 18.452,172.705 13.262,169.007 10.751 C 161.667 5.767,158.657 4.414,157.300 5.490 M351.284 40.016 C 356.437 43.112,368.090 49.093,378.339 53.902 C 385.047 57.050,384.584 56.545,387.291 63.668 C 393.188 79.189,393.231 79.336,392.548 81.636 C 391.853 83.976,383.912 91.522,367.551 105.387 C 361.540 110.481,361.980 110.438,356.106 106.515 C 345.663 99.541,335.755 90.384,327.607 80.178 C 322.533 73.823,322.559 74.136,326.480 66.267 C 330.860 57.479,337.754 47.817,344.781 40.617 L 347.035 38.307 347.875 38.390 C 348.551 38.456,349.220 38.775,351.284 40.016 M230.221 41.586 C 223.357 44.705,227.085 71.727,239.566 109.319 C 241.572 115.361,241.515 114.857,240.283 115.668 C 234.580 119.424,233.048 120.666,233.048 121.534 C 233.048 123.308,233.777 123.230,237.025 121.107 C 246.329 115.026,267.303 103.352,272.762 101.215 C 283.058 97.185,290.819 99.637,292.562 107.469 C 294.350 115.506,289.200 121.482,274.303 128.660 C 267.121 132.120,255.086 136.699,247.688 138.786 C 246.227 139.199,245.890 139.449,245.890 140.124 C 245.890 141.344,246.118 141.348,251.345 140.228 C 283.065 133.431,298.618 122.968,297.890 108.917 C 297.321 97.925,287.236 91.214,276.544 94.713 C 275.199 95.153,270.188 97.555,266.808 99.378 C 263.631 101.093,263.831 101.168,262.991 97.945 C 262.189 94.870,262.399 94.867,249.249 98.173 C 247.188 98.691,245.397 99.075,245.268 99.026 C 243.796 98.461,249.415 91.830,255.311 87.177 C 258.113 84.965,258.048 85.032,258.048 84.377 C 258.048 81.859,252.236 66.115,248.687 59.021 C 242.600 46.853,234.813 39.500,230.221 41.586 M34.859 45.546 C 41.532 48.551,47.890 51.847,51.244 54.040 C 54.919 56.442,55.102 56.481,62.686 56.472 C 73.151 56.459,76.191 56.994,79.982 59.514 C 84.761 62.691,87.054 66.994,87.050 72.774 C 87.047 76.981,86.824 77.281,84.701 75.934 C 78.182 71.798,69.897 68.933,66.158 69.521 C 61.812 70.205,58.308 74.682,56.868 81.391 C 55.559 87.486,56.384 89.162,62.053 91.931 C 68.880 95.264,75.000 99.111,75.000 100.068 C 75.000 100.863,71.129 103.811,68.482 105.032 C 52.851 112.244,39.896 97.946,44.877 78.977 C 46.528 72.688,50.162 67.288,55.651 62.968 C 57.437 61.561,57.573 61.365,57.094 60.886 C 54.734 58.525,45.534 66.851,42.091 74.463 C 39.191 80.876,38.050 90.343,39.514 95.849 C 39.797 96.914,39.796 96.924,39.415 97.305 C 38.600 98.118,28.770 97.800,19.837 96.671 L 16.718 96.277 16.093 95.607 C 13.762 93.108,8.558 82.593,7.590 78.425 C 6.936 75.612,6.820 75.312,6.262 75.005 C 5.498 74.584,5.500 74.578,7.728 71.391 C 16.442 58.924,24.118 49.601,28.663 45.964 C 31.137 43.984,31.359 43.969,34.859 45.546 M177.379 48.006 C 169.851 51.103,169.945 66.783,177.638 91.096 C 180.117 98.932,180.026 98.801,183.026 98.801 C 190.152 98.801,197.878 100.378,201.056 102.482 C 202.486 103.428,201.979 103.778,198.459 104.271 C 193.008 105.035,186.906 107.075,185.474 108.613 C 184.493 109.666,185.033 111.778,187.609 116.969 C 192.067 125.952,197.307 130.057,202.568 128.686 C 213.357 125.875,213.929 106.019,203.919 81.782 C 193.897 57.515,184.215 45.194,177.379 48.006 M70.991 76.713 C 74.400 77.578,83.696 82.881,89.846 87.468 C 92.735 89.623,92.644 89.418,91.806 91.898 C 91.431 93.011,90.761 95.270,90.318 96.918 C 89.407 100.310,89.326 100.514,88.876 100.514 C 88.697 100.514,86.292 99.024,83.531 97.203 C 73.267 90.436,71.341 89.271,67.756 87.663 C 64.503 86.203,63.539 85.099,63.531 82.825 C 63.515 77.839,66.332 75.531,70.991 76.713 M317.751 78.707 C 318.120 78.881,318.711 79.484,319.308 80.291 C 322.927 85.189,328.587 91.952,331.861 95.291 C 332.877 96.327,333.723 97.290,333.741 97.432 C 333.989 99.387,330.189 101.754,327.241 101.480 C 321.647 100.960,311.939 89.715,311.911 83.725 C 311.896 80.334,315.199 77.495,317.751 78.707 M311.310 99.411 C 312.678 101.131,315.608 103.825,317.389 105.001 L 319.065 106.108 319.526 107.837 L 319.988 109.567 319.369 109.661 C 318.092 109.854,312.291 110.464,312.237 110.410 C 312.206 110.379,311.902 109.045,311.561 107.446 C 311.061 105.102,310.146 101.384,308.801 96.233 C 308.739 95.995,309.089 96.377,309.587 97.089 C 310.081 97.795,310.856 98.840,311.310 99.411 M339.388 102.340 C 339.621 102.497,340.274 103.059,340.839 103.589 C 343.479 106.064,354.087 114.077,355.931 114.988 C 358.418 116.218,360.225 116.299,361.559 115.239 C 362.374 114.592,362.526 114.597,363.313 115.301 C 364.667 116.511,365.025 116.529,367.108 115.486 C 368.811 114.633,371.353 112.810,373.143 111.155 C 376.731 107.840,374.774 112.587,371.091 116.133 C 365.760 121.265,357.929 122.835,347.833 120.795 C 338.691 118.948,332.367 115.550,329.257 110.814 C 327.570 108.243,327.737 107.642,330.187 107.481 C 335.218 107.151,337.428 106.060,337.236 104.002 C 337.070 102.234,338.077 101.456,339.388 102.340 M125.437 112.454 C 118.645 115.841,118.971 115.568,119.642 117.306 C 120.272 118.938,120.420 119.017,121.746 118.421 C 123.138 117.797,123.073 117.634,123.284 122.261 C 124.956 158.977,142.319 192.868,167.087 207.759 C 190.665 221.934,222.992 224.898,243.823 214.795 C 272.359 200.955,294.024 169.526,295.815 139.372 C 296.149 133.759,293.182 132.591,288.099 136.336 C 269.627 149.946,243.863 156.894,219.949 154.717 C 180.862 151.158,147.416 136.275,132.951 116.003 C 131.997 114.666,132.018 114.294,133.085 113.708 C 134.709 112.816,134.759 112.526,133.573 110.837 C 132.220 108.911,132.757 108.804,125.437 112.454 M324.559 117.118 C 324.799 117.210,325.517 117.793,326.154 118.414 C 329.549 121.725,336.808 125.208,343.108 126.549 C 344.335 126.811,344.295 127.163,343.022 127.292 C 340.973 127.499,312.829 128.982,312.735 128.888 C 312.680 128.833,312.645 127.069,312.656 124.968 C 312.667 122.867,312.599 120.494,312.505 119.695 C 312.375 118.582,312.384 118.196,312.546 118.044 C 312.962 117.651,323.771 116.819,324.559 117.118 M94.841 172.731 C 95.039 172.896,96.076 174.803,97.147 176.969 C 104.262 191.359,114.340 204.489,125.995 214.555 C 128.551 216.762,128.536 216.683,126.746 218.574 C 122.466 223.096,117.406 230.840,115.754 235.400 C 115.087 237.241,114.800 237.217,113.457 235.215 C 109.289 229.000,95.770 217.512,95.140 219.649 C 95.028 220.029,94.700 221.875,94.516 223.162 C 94.308 224.611,94.494 224.991,96.393 227.008 C 98.426 229.167,98.446 229.247,97.407 231.150 C 90.729 243.378,79.754 247.778,63.902 244.583 C 55.586 242.907,48.602 238.822,46.397 234.344 L 45.850 233.232 46.134 231.213 C 49.588 206.732,61.013 190.588,84.389 177.157 C 90.587 173.596,94.097 172.109,94.841 172.731 M186.961 182.264 C 192.857 183.521,197.792 185.904,200.709 188.905 C 202.217 190.456,201.954 190.407,204.281 189.578 C 214.119 186.075,226.294 189.519,233.252 197.774 C 237.354 202.640,239.677 208.760,238.041 210.389 C 236.877 211.549,229.350 213.680,223.373 214.541 C 201.678 217.667,173.275 208.564,160.133 194.272 C 157.709 191.636,157.706 191.343,160.073 189.273 C 167.362 182.901,177.522 180.253,186.961 182.264 M305.822 218.673 C 323.263 220.260,334.801 229.643,337.829 244.700 C 342.055 265.715,329.992 299.489,309.485 324.058 C 297.698 338.179,286.173 343.354,276.639 338.807 C 267.377 334.389,263.734 320.870,266.461 301.043 C 268.290 287.748,271.660 278.231,280.153 262.377 C 288.644 246.527,300.636 233.640,311.216 228.998 C 312.905 228.257,313.185 228.014,313.185 227.293 C 313.185 225.354,311.543 224.844,308.618 225.876 C 298.387 229.484,290.099 236.866,281.051 250.428 C 265.679 273.470,260.346 290.199,259.871 316.866 C 259.821 319.676,259.766 320.300,259.563 320.340 C 259.428 320.366,258.126 319.259,256.670 317.878 C 244.615 306.444,230.007 294.022,217.268 284.374 C 214.206 282.055,213.229 281.477,211.702 281.079 C 209.483 280.501,208.662 277.355,208.665 269.435 C 208.671 249.285,218.066 234.936,233.159 232.024 C 237.708 231.146,246.231 231.385,248.287 232.448 C 248.748 232.687,255.311 241.732,255.945 243.003 C 256.194 243.502,256.131 243.881,254.643 250.830 C 252.797 259.447,252.729 260.451,253.991 260.443 C 254.610 260.438,254.743 260.259,255.569 258.300 C 267.021 231.152,285.222 216.799,305.822 218.673 M171.318 219.524 C 176.061 220.055,181.258 221.350,180.909 221.915 C 180.857 222.000,180.235 222.348,179.526 222.688 C 176.956 223.925,175.148 226.150,174.589 228.767 C 174.265 230.279,174.173 230.466,173.683 230.589 C 172.526 230.879,159.258 226.418,155.908 224.612 C 154.473 223.839,154.469 223.537,155.882 222.529 C 159.468 219.970,165.247 218.845,171.318 219.524 M134.092 221.114 C 135.720 222.281,135.720 222.301,134.129 224.105 C 131.571 227.006,129.623 230.370,129.623 231.887 C 129.623 232.888,129.644 232.911,134.632 237.562 C 137.453 240.193,137.439 240.143,135.830 241.607 C 129.868 247.032,122.276 248.000,120.127 243.609 C 118.106 239.477,121.502 231.408,128.582 223.522 C 131.770 219.970,132.222 219.773,134.092 221.114 M189.564 228.150 C 194.042 228.877,200.431 231.609,207.363 235.760 C 210.869 237.859,210.822 237.772,209.511 239.729 C 208.348 241.464,206.645 244.917,205.668 247.517 C 204.407 250.874,204.412 250.873,201.914 248.843 C 197.249 245.052,193.680 242.701,188.271 239.856 C 182.861 237.010,181.086 235.195,181.123 232.545 C 181.172 229.025,184.447 227.319,189.564 228.150 " stroke="none" fill="#04040c" fill-rule="evenodd"></path><path id="path3" d="M294.911 222.612 C 293.586 222.873,291.436 223.496,291.344 223.644 C 291.237 223.817,291.558 229.800,291.681 229.923 C 291.727 229.969,292.520 229.769,293.442 229.479 C 294.750 229.068,296.760 228.596,297.206 228.596 C 297.236 228.596,297.260 227.209,297.260 225.514 L 297.260 222.432 296.447 222.450 C 296.000 222.461,295.308 222.533,294.911 222.612 M286.558 225.621 C 280.785 228.586,275.148 233.620,270.094 240.325 C 268.456 242.497,268.420 242.041,270.476 245.054 C 271.465 246.503,272.341 247.688,272.423 247.688 C 272.505 247.688,273.158 246.851,273.875 245.828 C 278.275 239.543,282.714 235.152,287.768 232.083 L 289.075 231.290 288.979 230.414 C 288.926 229.932,288.837 228.767,288.782 227.825 C 288.581 224.373,288.720 224.511,286.558 225.621 M53.425 226.589 C 53.425 226.616,53.039 228.328,52.568 230.394 C 52.098 232.460,51.712 234.199,51.712 234.259 C 51.712 234.571,56.697 237.671,57.199 237.671 C 57.459 237.671,59.092 231.096,59.079 230.102 C 59.077 229.922,58.599 229.533,57.834 229.087 C 57.151 228.690,55.954 227.955,55.174 227.453 C 53.942 226.661,53.425 226.406,53.425 226.589 M82.363 230.156 C 78.428 233.565,71.230 234.250,63.847 231.918 C 62.162 231.385,62.423 231.030,61.535 235.053 C 60.564 239.454,60.534 239.123,61.943 239.537 C 72.219 242.551,80.400 241.567,87.101 236.511 C 88.571 235.402,88.627 235.596,85.921 232.447 C 83.310 229.407,83.263 229.377,82.363 230.156 " stroke="none" fill="#fbfafa" fill-rule="evenodd"></path><path id="path4" d="M211.221 6.397 C 222.930 12.036,238.742 26.515,248.462 40.497 C 251.074 44.254,251.040 44.245,254.373 41.995 C 256.960 40.248,257.012 40.150,256.064 38.773 C 255.212 37.536,255.347 37.502,256.952 38.547 C 270.256 47.207,283.108 61.107,291.778 76.213 C 306.755 102.309,309.541 136.094,299.033 164.194 C 289.226 190.419,270.940 210.947,246.579 223.081 C 243.176 224.776,243.660 224.695,238.682 224.404 C 231.846 224.005,223.569 226.433,217.160 230.716 L 215.399 231.893 214.420 231.346 C 208.691 228.145,199.856 224.413,192.723 222.181 C 191.027 221.650,189.255 221.056,188.784 220.860 C 185.221 219.378,182.306 218.541,177.911 217.738 C 165.603 215.489,156.690 216.573,151.802 220.912 C 151.022 221.604,150.591 221.874,150.384 221.801 C 142.435 219.010,128.287 208.345,120.099 198.973 C 97.840 173.492,89.416 142.719,95.047 107.449 C 99.517 79.449,122.147 48.769,149.095 34.175 C 152.978 32.072,152.762 31.976,153.667 36.216 C 154.584 40.513,154.993 42.826,156.354 51.411 C 156.706 53.630,157.541 53.958,161.087 53.271 C 163.816 52.742,163.764 53.123,162.251 44.838 C 159.027 27.188,156.405 16.731,154.685 14.670 C 154.193 14.081,154.141 14.331,154.627 14.948 C 156.249 17.011,159.781 31.880,162.759 49.187 C 163.347 52.604,163.358 52.579,161.182 52.976 C 156.889 53.760,156.969 53.825,156.245 48.973 C 155.231 42.178,153.498 33.532,152.996 32.766 C 152.624 32.199,152.264 32.255,150.467 33.155 C 123.842 46.501,99.647 78.410,94.952 106.370 C 89.414 139.349,95.833 167.386,114.722 192.723 C 123.705 204.772,135.280 214.663,147.502 220.736 C 150.733 222.341,150.622 222.329,151.884 221.190 C 156.923 216.642,166.119 215.641,179.013 218.237 C 182.675 218.974,185.731 219.839,187.412 220.616 C 188.110 220.939,189.397 221.412,190.273 221.669 C 197.309 223.730,204.573 226.643,211.621 230.230 L 215.450 232.179 217.271 230.971 C 223.924 226.562,232.920 224.017,239.511 224.680 C 243.111 225.042,243.218 225.024,246.226 223.544 C 279.210 207.316,301.660 174.931,305.042 138.699 C 308.605 100.536,292.717 65.012,261.558 41.474 C 255.858 37.167,253.967 36.296,255.753 38.799 C 256.737 40.178,256.776 40.099,254.288 41.762 C 251.236 43.802,251.047 43.793,249.501 41.518 C 241.731 30.088,231.856 19.945,220.866 12.109 C 216.669 9.116,211.206 5.822,210.439 5.822 C 210.159 5.822,210.409 6.006,211.221 6.397 M208.711 9.017 C 208.810 9.190,209.078 9.506,209.306 9.717 C 210.855 11.150,214.926 27.501,217.376 42.123 C 218.276 47.497,218.275 47.517,217.254 47.653 C 211.246 48.456,211.617 48.713,210.875 43.236 C 209.279 31.468,207.205 22.175,206.078 21.746 C 203.457 20.750,191.355 21.253,184.903 22.626 C 183.569 22.910,183.638 23.033,187.183 26.680 C 193.904 33.594,200.384 41.460,202.260 44.980 C 202.742 45.884,202.710 45.924,200.193 47.588 C 197.614 49.294,197.624 49.297,195.363 46.117 C 188.136 35.958,177.544 25.228,167.551 17.944 C 163.695 15.134,157.194 11.130,156.486 11.130 C 156.300 11.130,156.717 11.430,157.412 11.796 C 169.931 18.389,185.453 32.574,195.119 46.256 C 197.493 49.616,197.659 49.659,200.574 47.672 C 203.366 45.769,203.308 46.045,201.487 43.322 C 197.948 38.029,193.492 32.732,187.261 26.412 C 185.373 24.497,184.242 23.226,184.341 23.132 C 184.521 22.960,186.393 22.568,188.870 22.184 C 194.409 21.323,205.329 21.344,206.195 22.217 C 207.139 23.169,209.150 32.773,210.618 43.340 C 211.361 48.693,211.265 48.586,214.998 48.191 C 218.934 47.775,218.710 48.354,217.563 41.565 C 214.790 25.158,210.955 10.483,209.078 9.102 C 208.631 8.774,208.565 8.758,208.711 9.017 M344.781 40.617 C 337.754 47.817,330.860 57.479,326.480 66.267 C 322.559 74.136,322.533 73.823,327.607 80.178 C 335.755 90.384,345.663 99.541,356.106 106.515 C 361.980 110.438,361.540 110.481,367.551 105.387 C 383.912 91.522,391.853 83.976,392.548 81.636 C 393.231 79.336,393.188 79.189,387.291 63.668 C 384.584 56.545,385.047 57.050,378.339 53.902 C 368.090 49.093,356.437 43.112,351.284 40.016 C 349.220 38.775,348.551 38.456,347.875 38.390 L 347.035 38.307 344.781 40.617 M348.716 38.849 C 349.092 39.021,350.133 39.608,351.027 40.152 C 356.579 43.530,367.600 49.162,380.002 54.959 C 385.019 57.304,384.108 55.752,390.427 72.733 C 393.544 81.108,393.517 81.302,388.527 86.298 C 383.348 91.484,364.850 107.753,362.970 108.776 C 361.575 109.535,360.541 109.166,356.433 106.440 C 345.605 99.256,335.267 89.605,326.836 78.809 C 323.370 74.370,323.254 73.891,324.793 70.346 C 329.162 60.284,338.013 47.464,345.833 39.874 C 347.361 38.391,347.561 38.320,348.716 38.849 M229.943 41.429 C 225.593 43.801,225.368 54.928,229.298 73.288 C 231.540 83.759,235.414 97.720,239.372 109.589 C 240.298 112.367,241.024 114.695,240.984 114.763 C 240.945 114.830,239.355 115.963,237.451 117.280 C 232.861 120.456,232.865 120.453,232.754 121.436 C 232.676 122.130,232.721 122.292,233.105 122.675 C 233.799 123.369,234.235 123.246,236.609 121.689 C 242.774 117.643,252.880 111.795,264.629 105.472 C 276.929 98.853,282.493 97.893,288.142 101.418 C 292.476 104.122,293.932 110.768,291.301 115.839 C 287.838 122.513,269.661 131.983,247.919 138.441 C 245.580 139.135,244.936 139.986,245.968 141.018 C 246.506 141.556,246.298 141.571,250.649 140.658 C 278.456 134.822,294.298 125.981,297.644 114.433 C 298.259 112.311,298.208 107.042,297.552 104.917 C 295.390 97.917,289.743 93.661,282.534 93.600 C 278.225 93.563,276.846 94.000,269.474 97.734 C 266.039 99.473,264.146 100.344,264.037 100.235 C 263.944 100.143,263.629 99.207,263.337 98.154 C 262.318 94.494,262.930 94.529,251.042 97.450 C 247.458 98.330,245.433 98.755,245.326 98.648 C 244.604 97.926,250.567 91.255,255.137 87.671 C 259.032 84.617,258.826 85.373,257.196 80.102 C 250.694 59.076,242.884 45.674,234.932 41.895 C 233.111 41.030,231.031 40.836,229.943 41.429 M233.134 41.502 C 241.313 43.711,250.006 57.798,256.860 79.953 C 257.513 82.065,258.048 84.056,258.048 84.377 C 258.048 85.032,258.113 84.965,255.311 87.177 C 249.415 91.830,243.796 98.461,245.268 99.026 C 245.397 99.075,247.188 98.691,249.249 98.173 C 262.399 94.867,262.189 94.870,262.991 97.945 C 263.831 101.168,263.631 101.093,266.808 99.378 C 270.188 97.555,275.199 95.153,276.544 94.713 C 287.236 91.214,297.321 97.925,297.890 108.917 C 298.618 122.968,283.065 133.431,251.345 140.228 C 246.118 141.348,245.890 141.344,245.890 140.124 C 245.890 139.449,246.227 139.199,247.688 138.786 C 255.086 136.699,267.121 132.120,274.303 128.660 C 289.200 121.482,294.350 115.506,292.562 107.469 C 290.819 99.637,283.058 97.185,272.762 101.215 C 267.303 103.352,246.329 115.026,237.025 121.107 C 233.777 123.230,233.048 123.308,233.048 121.534 C 233.048 120.666,234.580 119.424,240.283 115.668 C 241.515 114.857,241.572 115.361,239.566 109.319 C 225.390 66.623,222.742 38.696,233.134 41.502 M30.547 44.610 C 26.680 46.587,17.689 57.139,7.728 71.391 C 5.500 74.578,5.498 74.584,6.262 75.005 C 6.820 75.312,6.936 75.612,7.590 78.425 C 8.558 82.593,13.762 93.108,16.093 95.607 L 16.718 96.277 19.837 96.671 C 28.770 97.800,38.600 98.118,39.415 97.305 C 39.796 96.924,39.797 96.914,39.514 95.849 C 38.050 90.343,39.191 80.876,42.091 74.463 C 45.534 66.851,54.734 58.525,57.094 60.886 C 57.573 61.365,57.437 61.561,55.651 62.968 C 50.162 67.288,46.528 72.688,44.877 78.977 C 39.896 97.946,52.851 112.244,68.482 105.032 C 71.129 103.811,75.000 100.863,75.000 100.068 C 75.000 99.111,68.880 95.264,62.053 91.931 C 56.384 89.162,55.559 87.486,56.868 81.391 C 58.308 74.682,61.812 70.205,66.158 69.521 C 69.897 68.933,78.182 71.798,84.701 75.934 C 86.824 77.281,87.047 76.981,87.050 72.774 C 87.054 66.994,84.761 62.691,79.982 59.514 C 76.191 56.994,73.151 56.459,62.686 56.472 C 55.102 56.481,54.919 56.442,51.244 54.040 C 47.890 51.847,41.532 48.551,34.859 45.546 C 32.265 44.378,31.378 44.185,30.547 44.610 M35.240 45.992 C 41.902 49.020,47.835 52.103,51.027 54.197 C 54.750 56.637,54.932 56.678,62.097 56.678 C 72.190 56.679,74.934 57.063,78.529 58.975 C 84.555 62.181,87.664 68.287,86.732 75.086 C 86.488 76.872,86.596 76.852,84.448 75.505 C 77.567 71.191,69.435 68.551,65.548 69.369 C 61.188 70.287,57.344 75.908,56.330 82.847 C 55.603 87.816,56.644 89.596,61.696 92.020 C 65.032 93.621,69.017 95.846,71.918 97.729 C 75.196 99.856,75.253 99.987,73.533 101.446 C 62.749 110.595,48.789 107.232,45.124 94.601 C 43.681 89.629,43.859 82.817,45.573 77.415 C 47.282 72.031,51.015 66.874,56.032 62.967 C 57.820 61.575,58.008 60.823,56.667 60.422 C 52.882 59.288,44.540 67.668,41.160 75.998 C 39.049 81.201,38.000 91.385,39.150 95.512 C 39.681 97.418,39.386 97.573,35.185 97.593 C 30.450 97.614,17.833 96.454,16.801 95.901 C 14.752 94.805,8.591 82.385,7.532 77.217 C 7.189 75.540,6.889 74.919,6.340 74.745 C 5.822 74.580,5.836 74.552,7.990 71.454 C 16.950 58.562,25.653 48.170,29.813 45.392 C 31.361 44.358,31.737 44.399,35.240 45.992 M177.668 47.609 C 169.801 50.402,169.485 65.117,176.774 89.212 C 179.853 99.393,179.674 99.144,183.955 99.144 C 190.436 99.144,197.469 100.578,200.642 102.545 C 201.961 103.363,201.764 103.505,198.677 103.955 C 192.897 104.800,187.434 106.571,185.573 108.205 C 184.279 109.342,184.375 110.393,186.151 114.535 C 189.108 121.433,192.857 126.309,196.645 128.184 L 198.341 129.024 200.583 129.021 C 213.272 129.004,214.937 107.792,204.278 81.935 C 194.285 57.691,184.569 45.159,177.668 47.609 M181.597 47.932 C 187.759 50.098,195.987 62.576,203.919 81.782 C 213.929 106.019,213.357 125.875,202.568 128.686 C 197.307 130.057,192.067 125.952,187.609 116.969 C 185.033 111.778,184.493 109.666,185.474 108.613 C 186.906 107.075,193.008 105.035,198.459 104.271 C 201.979 103.778,202.486 103.428,201.056 102.482 C 197.878 100.378,190.152 98.801,183.026 98.801 C 180.026 98.801,180.117 98.932,177.638 91.096 C 170.990 70.087,169.981 54.882,174.888 49.685 C 176.671 47.798,179.277 47.117,181.597 47.932 M67.093 76.609 C 64.872 77.207,63.521 79.565,63.531 82.825 C 63.539 85.099,64.503 86.203,67.756 87.663 C 71.341 89.271,73.267 90.436,83.531 97.203 C 86.292 99.024,88.697 100.514,88.876 100.514 C 89.326 100.514,89.407 100.310,90.318 96.918 C 90.761 95.270,91.431 93.011,91.806 91.898 C 92.644 89.418,92.735 89.623,89.846 87.468 C 85.413 84.161,80.156 80.930,75.257 78.501 C 71.232 76.505,69.215 76.037,67.093 76.609 M71.780 77.195 C 76.328 78.820,91.480 88.125,92.066 89.653 C 92.122 89.797,91.849 90.893,91.461 92.089 C 91.074 93.285,90.402 95.574,89.969 97.175 C 89.535 98.776,89.115 100.155,89.034 100.240 C 88.948 100.330,87.325 99.369,85.154 97.943 C 73.388 90.213,71.479 89.067,66.642 86.825 C 64.256 85.719,63.482 84.272,63.865 81.628 C 64.489 77.314,67.458 75.651,71.780 77.195 M315.094 78.770 C 310.181 81.000,310.992 86.561,317.378 94.435 C 322.499 100.749,327.063 102.846,331.050 100.715 C 331.952 100.233,333.721 98.442,333.753 97.978 C 333.798 97.332,333.635 97.100,331.861 95.291 C 328.587 91.952,322.927 85.189,319.308 80.291 C 317.925 78.420,316.778 78.006,315.094 78.770 M317.574 78.925 C 318.032 79.133,318.483 79.539,318.852 80.077 C 321.046 83.272,328.204 91.875,331.398 95.157 C 333.933 97.761,333.924 97.732,332.576 99.173 C 330.733 101.143,327.974 101.785,325.410 100.841 C 320.218 98.928,312.132 88.465,312.165 83.703 C 312.188 80.449,315.156 77.827,317.574 78.925 M337.482 102.416 C 337.157 102.741,337.132 102.898,337.236 104.002 C 337.428 106.060,335.218 107.151,330.187 107.481 C 327.737 107.642,327.570 108.243,329.257 110.814 C 332.367 115.550,338.691 118.948,347.833 120.795 C 357.929 122.835,365.760 121.265,371.091 116.133 C 374.774 112.587,376.731 107.840,373.143 111.155 C 371.353 112.810,368.811 114.633,367.108 115.486 C 365.025 116.529,364.667 116.511,363.313 115.301 C 362.526 114.597,362.374 114.592,361.559 115.239 C 360.225 116.299,358.418 116.218,355.931 114.988 C 354.087 114.077,343.479 106.064,340.839 103.589 C 339.076 101.936,338.250 101.647,337.482 102.416 M338.948 102.394 C 339.192 102.487,339.910 103.050,340.543 103.644 C 342.774 105.739,353.215 113.760,355.222 114.920 C 357.658 116.330,360.216 116.613,361.462 115.611 C 362.334 114.910,362.565 114.927,363.462 115.753 C 365.071 117.237,368.028 115.990,372.671 111.872 C 374.839 109.950,375.128 109.821,374.643 110.996 C 373.354 114.123,369.173 118.036,365.465 119.587 C 354.314 124.248,334.390 119.125,329.145 110.246 C 327.966 108.251,328.222 107.705,330.335 107.705 C 332.632 107.705,336.416 106.593,337.224 105.680 C 337.494 105.374,337.533 105.131,337.458 104.197 C 337.328 102.577,337.830 101.970,338.948 102.394 M125.240 112.239 C 121.777 113.946,119.182 115.324,119.118 115.491 C 118.925 115.995,118.996 116.536,119.379 117.486 C 120.034 119.110,120.566 119.354,121.931 118.658 C 122.883 118.172,122.945 118.276,122.947 120.344 C 122.961 135.412,127.762 155.654,134.763 170.161 C 149.103 199.878,168.627 214.375,202.153 220.201 C 215.808 222.573,232.515 220.524,243.921 215.076 C 272.483 201.436,296.031 166.781,296.060 138.347 C 296.065 133.575,293.022 132.551,288.442 135.782 C 267.734 150.392,244.088 156.718,219.007 154.358 C 181.106 150.792,148.531 136.355,133.677 116.541 C 132.286 114.685,132.276 114.559,133.465 113.799 C 135.060 112.779,135.076 112.434,133.624 110.488 C 132.277 108.684,132.582 108.620,125.240 112.239 M132.446 109.526 C 132.855 109.683,134.418 111.973,134.418 112.415 C 134.418 112.847,134.112 113.144,133.085 113.708 C 132.018 114.294,131.997 114.666,132.951 116.003 C 147.416 136.275,180.862 151.158,219.949 154.717 C 243.863 156.894,269.627 149.946,288.099 136.336 C 293.182 132.591,296.149 133.759,295.815 139.372 C 294.024 169.526,272.359 200.955,243.823 214.795 C 218.505 227.074,177.727 219.802,155.464 199.037 C 137.063 181.875,124.650 152.259,123.284 122.261 C 123.073 117.634,123.138 117.797,121.746 118.421 C 120.420 119.017,120.272 118.938,119.642 117.306 C 118.971 115.568,118.645 115.841,125.437 112.454 C 131.354 109.504,131.849 109.297,132.446 109.526 M317.551 117.419 C 311.950 117.916,312.279 117.768,312.505 119.695 C 312.599 120.494,312.667 122.867,312.656 124.968 C 312.645 127.069,312.680 128.833,312.735 128.888 C 312.829 128.982,340.973 127.499,343.022 127.292 C 344.295 127.163,344.335 126.811,343.108 126.549 C 336.808 125.208,329.549 121.725,326.154 118.414 C 324.409 116.712,324.887 116.768,317.551 117.419 M324.363 117.365 C 324.666 117.498,325.454 118.122,326.113 118.752 C 329.132 121.637,334.612 124.446,340.497 126.123 C 342.757 126.768,343.396 127.049,342.628 127.062 C 342.398 127.066,335.659 127.441,327.654 127.897 C 319.649 128.352,313.038 128.688,312.963 128.645 C 312.888 128.601,312.877 127.436,312.939 126.055 C 313.005 124.593,312.969 122.445,312.854 120.913 C 312.745 119.465,312.690 118.246,312.733 118.203 C 312.775 118.161,315.187 117.910,318.092 117.646 C 320.997 117.382,323.472 117.156,323.593 117.145 C 323.714 117.133,324.060 117.232,324.363 117.365 M91.952 173.268 C 78.025 179.618,64.444 190.308,57.325 200.524 C 51.665 208.646,47.837 219.142,46.134 231.213 L 45.850 233.232 46.397 234.344 C 48.602 238.822,55.586 242.907,63.902 244.583 C 79.754 247.778,90.729 243.378,97.407 231.150 C 98.446 229.247,98.426 229.167,96.393 227.008 C 94.184 224.663,94.203 224.736,94.855 221.062 C 95.141 219.445,95.184 219.349,95.624 219.349 C 96.152 219.349,100.142 222.010,102.828 224.152 C 106.767 227.295,111.331 232.045,113.457 235.215 C 114.800 237.217,115.087 237.241,115.754 235.400 C 117.406 230.840,122.466 223.096,126.746 218.574 C 128.536 216.683,128.551 216.762,125.995 214.555 C 114.340 204.489,104.262 191.359,97.147 176.969 C 94.596 171.808,94.813 171.963,91.952 173.268 M94.668 172.902 C 94.865 173.067,96.052 175.244,97.306 177.740 C 104.489 192.030,114.825 205.348,126.327 215.134 C 128.254 216.773,128.250 216.615,126.396 218.638 C 121.673 223.792,117.741 229.938,115.233 236.087 C 114.968 236.737,114.601 236.526,113.717 235.216 C 110.270 230.107,102.280 222.722,97.015 219.777 C 95.140 218.729,95.027 218.822,94.522 221.816 C 94.010 224.859,94.010 224.861,96.161 227.069 C 98.231 229.194,98.227 229.181,97.243 230.993 C 90.579 243.259,79.853 247.547,63.844 244.345 C 55.777 242.732,48.951 238.771,46.595 234.335 C 45.109 231.537,49.101 216.077,53.605 207.190 C 59.783 194.996,72.601 183.259,88.613 175.133 C 93.172 172.819,94.143 172.462,94.668 172.902 M175.673 181.930 C 167.715 183.224,157.061 189.604,158.454 192.241 C 160.322 195.778,169.069 202.439,176.712 206.145 C 196.650 215.813,218.447 217.797,235.773 211.519 C 238.648 210.477,238.998 209.772,238.195 206.633 C 234.816 193.418,217.686 184.804,204.281 189.578 C 201.954 190.407,202.217 190.456,200.709 188.905 C 195.664 183.715,184.250 180.536,175.673 181.930 M184.786 182.117 C 191.380 183.037,197.870 185.959,200.858 189.354 C 202.025 190.679,201.994 190.671,203.502 190.072 C 213.568 186.073,226.350 189.594,233.432 198.315 C 237.095 202.825,239.302 208.512,238.021 210.140 C 237.106 211.304,228.756 213.617,222.432 214.459 C 202.182 217.154,174.710 208.640,161.722 195.642 C 158.029 191.946,157.922 191.619,159.819 189.811 C 166.108 183.817,175.725 180.853,184.786 182.117 M298.459 218.678 C 281.012 220.333,265.565 234.603,255.569 258.300 C 254.743 260.259,254.610 260.438,253.991 260.443 C 252.729 260.451,252.797 259.447,254.643 250.830 C 256.131 243.881,256.194 243.502,255.945 243.003 C 255.311 241.732,248.748 232.687,248.287 232.448 C 246.231 231.385,237.708 231.146,233.159 232.024 C 218.066 234.936,208.671 249.285,208.665 269.435 C 208.662 277.355,209.483 280.501,211.702 281.079 C 213.229 281.477,214.206 282.055,217.268 284.374 C 230.007 294.022,244.615 306.444,256.670 317.878 C 258.126 319.259,259.428 320.366,259.563 320.340 C 259.766 320.300,259.821 319.676,259.871 316.866 C 260.346 290.199,265.679 273.470,281.051 250.428 C 290.099 236.866,298.387 229.484,308.618 225.876 C 311.543 224.844,313.185 225.354,313.185 227.293 C 313.185 228.014,312.905 228.257,311.216 228.998 C 297.998 234.798,284.273 251.677,273.897 274.890 C 266.742 290.900,263.844 310.512,266.634 324.058 C 269.622 338.570,280.748 344.198,293.687 337.741 C 306.786 331.204,324.176 307.171,332.599 283.962 C 342.620 256.353,340.217 235.754,325.771 225.426 C 319.042 220.615,307.666 217.804,298.459 218.678 M307.620 219.089 C 325.639 221.702,335.563 230.950,338.123 247.517 C 338.522 250.097,338.577 258.203,338.213 260.788 C 335.749 278.291,328.660 296.235,317.750 312.586 C 305.314 331.222,293.473 340.665,283.134 340.192 C 268.168 339.506,262.285 322.009,267.808 294.608 C 269.948 283.995,272.830 276.567,280.136 262.842 C 288.212 247.671,299.789 234.819,309.751 229.965 C 310.933 229.389,312.170 228.787,312.498 228.628 C 313.716 228.038,313.783 226.561,312.635 225.595 C 311.491 224.633,308.720 225.269,304.110 227.553 C 295.288 231.923,287.837 239.434,279.589 252.272 C 264.619 275.571,259.740 291.956,259.593 319.413 C 259.588 320.458,259.820 320.617,255.874 316.866 C 239.877 301.659,215.768 281.948,211.875 280.894 C 210.162 280.431,209.755 279.597,209.180 275.383 C 206.628 256.679,214.777 239.011,228.459 233.581 C 234.239 231.288,246.580 230.943,248.620 233.019 C 249.226 233.637,255.612 242.683,255.811 243.208 C 255.931 243.524,255.600 245.337,254.447 250.688 C 252.479 259.819,252.468 259.956,253.631 260.607 C 254.378 261.025,254.873 260.512,255.771 258.386 C 267.555 230.486,286.611 216.043,307.620 219.089 M164.076 219.550 C 160.082 220.051,154.655 222.480,154.827 223.689 C 154.934 224.433,159.237 226.278,166.267 228.593 C 174.168 231.194,174.070 231.192,174.589 228.767 C 175.148 226.150,176.956 223.925,179.526 222.688 C 181.535 221.722,181.409 221.553,178.082 220.735 C 172.967 219.479,167.999 219.058,164.076 219.550 M173.116 220.042 C 175.426 220.372,180.274 221.473,180.526 221.725 C 180.599 221.798,180.007 222.181,179.210 222.576 C 176.638 223.850,174.875 226.084,174.322 228.769 C 174.043 230.122,173.910 230.308,173.224 230.308 C 171.266 230.308,155.624 224.728,155.070 223.832 C 154.808 223.407,157.020 221.910,159.156 221.067 C 162.930 219.577,167.506 219.241,173.116 220.042 M131.100 220.996 C 126.173 225.052,120.500 234.046,119.686 239.092 C 118.321 247.554,127.691 249.014,135.830 241.607 C 137.439 240.143,137.453 240.193,134.632 237.562 C 129.644 232.911,129.623 232.888,129.623 231.887 C 129.623 230.370,131.571 227.006,134.129 224.105 C 135.720 222.301,135.720 222.281,134.092 221.114 C 132.546 220.006,132.314 219.996,131.100 220.996 M133.864 221.228 C 135.482 222.364,135.477 222.230,133.962 223.983 C 131.131 227.259,129.452 230.193,129.452 231.866 C 129.452 233.089,129.362 232.982,133.818 237.074 C 137.162 240.144,137.094 240.027,136.116 241.030 C 130.648 246.641,122.182 247.877,120.233 243.348 C 118.383 239.048,122.227 230.524,129.463 222.874 C 132.081 220.108,132.204 220.062,133.864 221.228 M139.337 227.440 C 138.649 228.311,137.916 229.246,137.708 229.518 C 136.917 230.549,137.134 231.136,138.827 232.547 C 142.238 235.387,146.318 239.689,148.880 243.144 C 150.847 245.799,150.852 245.834,149.496 247.603 C 148.968 248.292,148.648 248.879,148.656 249.144 C 148.667 249.474,148.689 249.497,148.753 249.245 C 148.799 249.065,149.253 248.372,149.761 247.705 C 150.481 246.760,150.685 246.357,150.685 245.879 C 150.685 244.241,144.321 236.825,139.334 232.652 C 137.014 230.711,137.013 230.735,139.402 227.752 C 141.021 225.730,140.810 225.749,143.933 227.339 C 146.832 228.814,146.836 228.819,145.977 229.868 C 145.270 230.730,145.079 231.461,145.403 232.068 C 145.650 232.533,148.015 234.589,148.303 234.589 C 148.803 234.589,149.574 233.932,150.611 232.624 C 151.970 230.909,151.709 230.958,154.144 231.961 C 155.208 232.399,157.389 233.243,158.990 233.835 C 160.805 234.506,161.893 234.996,161.880 235.135 C 161.869 235.259,160.836 236.785,159.584 238.527 C 156.544 242.758,153.689 247.098,152.430 249.401 C 151.864 250.437,151.271 251.426,151.113 251.599 C 150.842 251.896,150.844 251.911,151.140 251.854 C 151.336 251.816,151.797 251.151,152.367 250.083 C 153.983 247.058,156.497 243.229,160.521 237.668 C 162.708 234.644,162.901 235.003,158.134 233.210 C 155.967 232.395,153.743 231.524,153.189 231.275 C 151.811 230.654,151.882 230.624,150.413 232.450 C 148.623 234.676,148.505 234.689,146.523 232.878 C 145.276 231.737,145.229 231.256,146.244 229.972 C 147.214 228.745,147.184 228.703,144.262 227.192 C 140.854 225.430,140.928 225.426,139.337 227.440 M184.774 228.183 C 181.771 228.990,180.318 231.799,181.544 234.428 C 182.472 236.420,183.845 237.528,188.271 239.856 C 193.680 242.701,197.249 245.052,201.914 248.843 C 204.412 250.873,204.407 250.874,205.668 247.517 C 206.645 244.917,208.348 241.464,209.511 239.729 C 210.822 237.772,210.869 237.859,207.363 235.760 C 197.407 229.798,189.115 227.016,184.774 228.183 M188.442 228.259 C 193.395 228.819,200.505 231.816,208.262 236.614 C 210.427 237.952,210.405 237.879,209.181 239.763 C 207.711 242.027,206.082 245.469,204.721 249.187 C 204.304 250.326,204.144 250.274,201.444 248.120 C 197.041 244.607,193.213 242.121,187.980 239.376 C 184.766 237.690,183.369 236.699,182.458 235.459 C 180.129 232.285,181.691 228.861,185.739 228.269 C 186.284 228.189,186.768 228.115,186.815 228.104 C 186.862 228.094,187.594 228.163,188.442 228.259 " stroke="none" fill="#5c542c" fill-rule="evenodd"></path></g></svg>